<?xml version="1.0" standalone="no"?>
<!DOCTYPE svg PUBLIC "-//W3C//DTD SVG 1.1//EN" "http://www.w3.org/Graphics/SVG/1.1/DTD/svg11.dtd" >
<svg xmlns="http://www.w3.org/2000/svg" xmlns:xlink="http://www.w3.org/1999/xlink" version="1.1">
<metadata>
Created by FontForge 20170731 at Wed Aug  7 13:29:54 2019
 By Aleksey,,,
Copyright (c) 2017 by Nizar Kazan-Grandchamp. All rights reserved.
</metadata>
<defs>
<font id="Lausanne-300" horiz-adv-x="554" >
  <font-face 
    font-family="Lausanne 250"
    font-weight="300"
    font-stretch="normal"
    units-per-em="1000"
    panose-1="2 0 5 3 4 0 0 2 0 4"
    ascent="800"
    descent="-200"
    x-height="517"
    cap-height="714"
    bbox="-141 -214 1139 985"
    underline-thickness="60"
    underline-position="-370"
    unicode-range="U+000D-FB02"
  />
<missing-glyph horiz-adv-x="959" 
d="M935 269v-20h-446v-446h-20v446h-445v20h445v445h20v-445h446z" />
    <glyph glyph-name="fi" unicode="fi" horiz-adv-x="526" 
d="M101 585q0 59 30 94t95 35h56v-76h-33q-31 0 -45.5 -12.5t-14.5 -44.5v-64h87v-74h-87v-443h-88v443h-71v74h71v68zM368 710h96v-100h-96v100zM371 0v517h90v-517h-90z" />
    <glyph glyph-name="fl" unicode="fl" horiz-adv-x="532" 
d="M101 585q0 59 30 94t95 35h56v-76h-33q-31 0 -45.5 -12.5t-14.5 -44.5v-64h87v-74h-87v-443h-88v443h-71v74h71v68zM374 714h90v-714h-90v714z" />
    <glyph glyph-name=".notdef" horiz-adv-x="959" 
d="M935 269v-20h-446v-446h-20v446h-445v20h445v445h20v-445h446z" />
    <glyph glyph-name=".null" horiz-adv-x="512" 
 />
    <glyph glyph-name="nonmarkingreturn" horiz-adv-x="333" 
 />
    <glyph glyph-name="CR" unicode="&#xd;" horiz-adv-x="12" 
 />
    <glyph glyph-name="space" unicode=" " horiz-adv-x="210" 
 />
    <glyph glyph-name="exclam" unicode="!" horiz-adv-x="248" 
d="M171 464l-23 -274h-49l-23 274v250h95v-250zM72 114h104v-114h-104v114z" />
    <glyph glyph-name="quotedbl" unicode="&#x22;" horiz-adv-x="424" 
d="M80 714h102l-8 -252h-72zM344 714l-22 -252h-72l-8 252h102z" />
    <glyph glyph-name="numbersign" unicode="#" horiz-adv-x="568" 
d="M528 421h-92l-20 -146h86v-70h-96l-29 -205h-71l29 205h-129l-29 -205h-71l29 205h-95v70h105l20 146h-99v70h109l31 223h71l-31 -223h129l31 223h71l-31 -223h82v-70zM345 275l20 146h-129l-20 -146h129z" />
    <glyph glyph-name="dollar" unicode="$" horiz-adv-x="609" 
d="M566 191q0 -89 -56.5 -141.5t-144.5 -63.5v-112h-92v112q-99 13 -159 77t-60 173h95q1 -81 48 -127t121 -46q67 0 110 31.5t43 93.5q0 54 -40 82t-121 50q-53 14 -88 28t-72.5 37.5t-57 60t-20.5 84.5q-2 89 55 139.5t146 59.5v109h92v-111q83 -14 131 -69.5t53 -148.5
h-95q-8 72 -42.5 107t-102.5 35q-142 0 -142 -114q0 -51 42 -82.5t119 -52.5q44 -12 72 -21t63 -26.5t55 -37.5t34 -52.5t14 -73.5z" />
    <glyph glyph-name="percent" unicode="%" horiz-adv-x="906" 
d="M622 715l-275 -715h-72l275 715h72zM207 714q76 0 119.5 -58.5t43.5 -139.5t-43.5 -141t-119.5 -60t-119.5 60t-43.5 141t43.5 139.5t119.5 58.5zM207 384q37 0 59 38t22 95q0 56 -22 92t-59 36t-59 -36t-22 -92q0 -57 22 -95t59 -38zM699 389q76 0 119.5 -58.5
t43.5 -138.5q0 -81 -44 -141.5t-119 -60.5q-76 0 -119.5 60.5t-43.5 141.5q0 80 43.5 138.5t119.5 58.5zM699 59q37 0 58.5 38.5t21.5 95.5q0 56 -21.5 91.5t-58.5 35.5t-59 -36t-22 -91q0 -57 22 -95.5t59 -38.5z" />
    <glyph glyph-name="ampersand" unicode="&#x26;" horiz-adv-x="652" 
d="M467 96q-67 -108 -202 -108q-68 0 -115.5 21.5t-69 55t-30 62.5t-8.5 56q0 76 44.5 124t128.5 92q-7 9 -22 28t-21 27t-16 24t-14.5 27.5t-8 28t-3.5 33.5q0 61 43 104t118 43q72 0 122.5 -38.5t50.5 -107.5q0 -107 -134 -185l125 -154q16 36 23 93h76q-10 -68 -45 -154
l145 -168h-111zM280 435q28 18 45.5 32t35.5 40.5t18 55.5q0 32 -22.5 54t-59.5 22q-33 0 -57.5 -19.5t-24.5 -56.5q0 -20 12 -46t21.5 -39t31.5 -43zM262 346q-32 -19 -49 -31t-39 -32.5t-32 -44.5t-10 -54q0 -52 41 -86.5t95 -34.5q32 0 54 5.5t40.5 22t26 25.5t26.5 36z
" />
    <glyph glyph-name="quotesingle" unicode="'" horiz-adv-x="222" 
d="M60 714h102l-14 -252h-74z" />
    <glyph glyph-name="parenleft" unicode="(" horiz-adv-x="286" 
d="M207 -198q-77 120 -117 232t-40 236q0 119 40.5 239.5t116.5 221.5h79q-146 -256 -146 -461q0 -117 37.5 -228.5t108.5 -239.5h-79z" />
    <glyph glyph-name="parenright" unicode=")" horiz-adv-x="286" 
d="M79 -198h-79q71 128 108.5 239.5t37.5 228.5q0 205 -146 461h79q76 -101 116.5 -221.5t40.5 -239.5q0 -124 -40 -236t-117 -232z" />
    <glyph glyph-name="asterisk" unicode="*" horiz-adv-x="382" 
d="M223 600l113 39l22 -62l-113 -38l69 -95l-52 -39l-72 97l-67 -96l-56 38l69 94l-112 39l22 63l111 -40v114h66v-114z" />
    <glyph glyph-name="plus" unicode="+" horiz-adv-x="604" 
d="M342 311h212v-76h-212v-215h-80v215h-212v76h212v215h80v-215z" />
    <glyph glyph-name="comma" unicode="," horiz-adv-x="240" 
d="M86 121h100l-70 -234h-80z" />
    <glyph glyph-name="hyphen" unicode="-" horiz-adv-x="445" 
d="M62 320h321v-84h-321v84z" />
    <glyph glyph-name="period" unicode="." horiz-adv-x="242" 
d="M66 114h110v-114h-110v114z" />
    <glyph glyph-name="slash" unicode="/" horiz-adv-x="329" 
d="M254 771h85l-244 -868h-85z" />
    <glyph glyph-name="zero" unicode="0" horiz-adv-x="600" 
d="M300 718q68 0 118.5 -30t79.5 -82.5t42.5 -114.5t13.5 -134t-13.5 -135t-42.5 -117t-79.5 -85.5t-118.5 -31.5t-118.5 31.5t-79.5 85t-42.5 117t-13.5 135.5t13.5 134t42.5 114.5t79.5 82.5t118.5 30zM300 64q42 0 74.5 26.5t51.5 70t28.5 93.5t9.5 103q0 71 -16 133.5
t-54.5 107t-93.5 44.5t-93.5 -44.5t-54.5 -107t-16 -133.5q0 -53 9.5 -103t28.5 -93.5t51.5 -70t74.5 -26.5z" />
    <glyph glyph-name="one" unicode="1" horiz-adv-x="410" 
d="M240 714h74v-714h-90v529h-170v68q83 0 127 23t59 94z" />
    <glyph glyph-name="two" unicode="2" horiz-adv-x="583" 
d="M164 76h369v-76h-477q0 46 14 87.5t31.5 69.5t50.5 58.5t54.5 46t60.5 41.5q53 35 75.5 52t49 43.5t35.5 53.5t9 63q0 57 -36 92t-101 35q-70 0 -106 -44t-37 -111h-90q0 113 62 172t176 59q102 0 162 -53.5t60 -150.5q0 -55 -19 -97.5t-41 -64t-68 -58.5l-15 -12
q-22 -17 -64 -47t-67.5 -49.5t-51.5 -49.5t-36 -60z" />
    <glyph glyph-name="three" unicode="3" horiz-adv-x="573" 
d="M82 528q3 86 59.5 138t153.5 52q93 0 147.5 -47.5t54.5 -126.5q0 -120 -107 -161q143 -35 143 -178q0 -97 -65 -157t-176 -60q-106 0 -168.5 54t-73.5 153v10h95v-7q6 -66 45 -100t104 -34q71 0 110 41t39 103q0 68 -49 99t-123 31h-22v85q15 0 41 2q117 15 117 105
q0 52 -30.5 81t-84.5 29q-105 0 -120 -101q0 -1 -0.5 -5t-0.5 -6h-89z" />
    <glyph glyph-name="four" unicode="4" horiz-adv-x="563" 
d="M515 256v-75h-79v-181h-90v181h-310v73l318 460h82v-458h79zM128 256h218v311h-4z" />
    <glyph glyph-name="five" unicode="5" horiz-adv-x="582" 
d="M306 477q105 0 171.5 -66.5t66.5 -178.5q0 -103 -69.5 -173.5t-180.5 -70.5q-96 0 -166.5 55.5t-77.5 147.5h90q8 -54 51 -90.5t103 -36.5q66 0 113 45t47 123q0 73 -47 120t-117 47q-89 0 -132 -79l-93 11l55 383h362v-76h-291l-38 -248l1 -1q18 37 59.5 62.5t92.5 25.5
z" />
    <glyph glyph-name="six" unicode="6" horiz-adv-x="593" 
d="M320 477q101 0 167 -71t66 -175t-73 -173.5t-180 -69.5q-115 0 -188 81q-38 41 -52 106.5t-14 166.5q0 73 13.5 137.5t42.5 120t79.5 88t118.5 32.5q190 0 229 -177h-90q-9 24 -15.5 37t-21 30.5t-38 25.5t-57.5 8q-154 0 -171 -267v-22h1q18 50 67 86t116 36zM300 64
q68 0 115.5 49t47.5 118t-46.5 118.5t-116.5 49.5q-69 0 -112.5 -46.5t-43.5 -121.5q0 -69 44.5 -118t111.5 -49z" />
    <glyph glyph-name="seven" unicode="7" horiz-adv-x="523" 
d="M22 714h459v-84q-107 -106 -184.5 -285t-87.5 -345h-90q14 197 99 380t198 258h-394v76z" />
    <glyph glyph-name="eight" unicode="8" horiz-adv-x="597" 
d="M399 378q61 -16 106.5 -65.5t45.5 -118.5q0 -95 -70.5 -150.5t-179.5 -55.5q-112 0 -184 55.5t-71 150.5q1 69 47 118.5t107 65.5q-54 14 -89.5 59t-35.5 105q0 81 63.5 129.5t161.5 48.5t161.5 -48.5t63.5 -129.5q0 -59 -36 -104.5t-90 -59.5zM166 526q0 -49 37 -83.5
t97 -34.5t97 34.5t37 83.5t-37 83.5t-97 34.5t-97 -34.5t-37 -83.5zM300 64q76 0 118.5 39t42.5 100q0 59 -42.5 97.5t-118.5 38.5q-77 0 -120.5 -39t-43.5 -98q0 -60 43.5 -99t120.5 -39z" />
    <glyph glyph-name="nine" unicode="9" horiz-adv-x="593" 
d="M482 642q37 -41 51 -107.5t14 -168.5q0 -107 -24.5 -189.5t-81.5 -135.5t-142 -53q-97 0 -161 50t-79 127h90q29 -101 144 -101q82 0 120 69t44 198v12h-1q-14 -43 -61 -77.5t-112 -34.5q-105 0 -174 70t-69 176q0 104 73 173.5t180 69.5q119 0 189 -78zM293 309
q69 0 116 50.5t47 117.5q0 71 -47 119t-116 48q-68 0 -115.5 -49t-47.5 -118t46.5 -118.5t116.5 -49.5z" />
    <glyph glyph-name="colon" unicode=":" horiz-adv-x="250" 
d="M180 357h-110v120h110v-120zM180 10h-110v120h110v-120z" />
    <glyph glyph-name="semicolon" unicode=";" horiz-adv-x="250" 
d="M180 357h-110v120h110v-120zM80 121h110l-80 -234h-80z" />
    <glyph glyph-name="less" unicode="&#x3c;" horiz-adv-x="556" 
d="M512 426l-375 -173l375 -173v-88l-468 220v82l468 220v-88z" />
    <glyph glyph-name="equal" unicode="=" horiz-adv-x="648" 
d="M576 315h-504v73h504v-73zM72 191h504v-73h-504v73z" />
    <glyph glyph-name="greater" unicode="&#x3e;" horiz-adv-x="556" 
d="M44 426v88l468 -220v-82l-468 -220v88l375 173z" />
    <glyph glyph-name="question" unicode="?" horiz-adv-x="549" 
d="M60 484v28q0 98 61 158.5t157 60.5q95 0 153 -55.5t58 -144.5q0 -39 -15 -73.5t-28.5 -51t-42.5 -46.5q-53 -54 -68 -82q-17 -31 -17 -65v-23h-90v31q0 45 17.5 82t43 62.5t50.5 48.5t42.5 53t17.5 64q0 55 -32.5 89.5t-88.5 34.5q-57 0 -92.5 -39t-35.5 -104v-28h-90z
M225 114h104v-114h-104v114z" />
    <glyph glyph-name="at" unicode="@" horiz-adv-x="837" 
d="M664 -8q-91 -57 -214 -57q-177 0 -291.5 107t-114.5 277q0 175 113.5 287t277.5 112q162 0 260 -96t98 -249q0 -111 -48 -179.5t-125 -68.5q-48 0 -74 24t-28 66q-10 -43 -43 -71t-80 -28q-77 0 -123.5 53t-46.5 143q0 92 57 154t132 62q52 0 80.5 -28t34.5 -72l7 81h73
l-25 -248q-2 -14 -2 -21q0 -26 9.5 -36.5t30.5 -10.5q44 0 71 50.5t27 129.5q0 126 -74 200t-211 74t-224 -90.5t-87 -237.5q0 -140 87 -226.5t239 -86.5q109 0 184 48zM518 345q0 50 -26 80t-72 30q-52 0 -83.5 -39t-31.5 -101q0 -63 22 -95t78 -32q52 0 82.5 43t30.5 114z
" />
    <glyph glyph-name="A" unicode="A" horiz-adv-x="707" 
d="M591 0l-79 209h-317l-79 -209h-98l276 714h119l276 -714h-98zM352 629l-128 -342h259l-128 342h-3z" />
    <glyph glyph-name="B" unicode="B" horiz-adv-x="608" 
d="M76 0v714h215q65 0 74 -1q85 -8 133 -58.5t48 -131.5q0 -52 -38.5 -97.5t-104.5 -56.5v-1q75 -8 124 -53t49 -113q0 -78 -52 -136t-142 -65q-10 -1 -52 -1h-254zM171 404h147q63 0 98 30t35 89q0 111 -133 111h-147v-230zM171 80h175q60 0 97.5 32.5t37.5 89.5
q0 56 -37.5 89t-97.5 33h-175v-244z" />
    <glyph glyph-name="C" unicode="C" horiz-adv-x="772" 
d="M726 211q-23 -94 -108 -159t-214 -65q-170 0 -267 106t-97 264t97 264t267 106q244 0 321 -223h-95q-31 72 -83 107.5t-143 35.5q-128 0 -198.5 -83.5t-70.5 -206.5t70.5 -206.5t198.5 -83.5q177 0 227 144h95z" />
    <glyph glyph-name="D" unicode="D" horiz-adv-x="698" 
d="M291 714q173 0 270 -93t97 -252q0 -161 -97 -265t-264 -104h-221v714h215zM300 80q114 0 188.5 75.5t74.5 213.5q0 131 -74 198t-193 67h-125v-554h129z" />
    <glyph glyph-name="E" unicode="E" horiz-adv-x="580" 
d="M171 80h357v-80h-452v714h449v-80h-354v-231h333v-80h-333v-243z" />
    <glyph glyph-name="F" unicode="F" horiz-adv-x="540" 
d="M516 634h-345v-231h316v-80h-316v-323h-95v714h440v-80z" />
    <glyph glyph-name="G" unicode="G" horiz-adv-x="771" 
d="M405 364h310l-9 -364h-60l-12 137q-26 -73 -87 -113.5t-157 -40.5q-166 0 -258 109t-92 265q0 100 40.5 183.5t124 137t195.5 53.5q127 0 205 -64.5t104 -162.5h-95q-44 147 -214 147q-125 0 -195 -87t-70 -207t67.5 -207t187.5 -87q62 0 114 22t88 74.5t36 128.5
l-223 -2v78z" />
    <glyph glyph-name="H" unicode="H" horiz-adv-x="686" 
d="M515 714h95v-714h-95v318h-344v-318h-95v714h95v-316h344v316z" />
    <glyph glyph-name="I" unicode="I" horiz-adv-x="263" 
d="M84 714h95v-714h-95v714z" />
    <glyph glyph-name="J" unicode="J" horiz-adv-x="496" 
d="M123 177q3 -114 106 -114q106 0 106 121v530h95v-519q0 -103 -50.5 -157.5t-149.5 -54.5q-95 0 -146 50t-56 144h95z" />
    <glyph glyph-name="K" unicode="K" horiz-adv-x="634" 
d="M516 0l-239 350l-106 -112v-238h-95v714h95v-360l330 360h121l-283 -298l291 -416h-114z" />
    <glyph glyph-name="L" unicode="L" horiz-adv-x="542" 
d="M171 80h347v-80h-442v714h95v-634z" />
    <glyph glyph-name="M" unicode="M" horiz-adv-x="871" 
d="M635 714h160v-714h-95v620h-2l-207 -620h-110l-208 620h-2v-620h-95v714l160 -1l200 -607z" />
    <glyph glyph-name="N" unicode="N" horiz-adv-x="719" 
d="M76 714h114l276 -451l82 -130v146v435h95v-714h-117l-275 448q-14 21 -40 63.5t-40 63.5v-151v-424h-95v714z" />
    <glyph glyph-name="O" unicode="O" horiz-adv-x="820" 
d="M410 731q168 0 269 -108.5t101 -265.5t-101 -265.5t-269 -108.5t-269 108.5t-101 265.5t101 265.5t269 108.5zM410 63q127 0 201 87t74 207t-74 207t-201 87t-201 -87t-74 -207t74 -207t201 -87z" />
    <glyph glyph-name="P" unicode="P" horiz-adv-x="582" 
d="M320 714q106 0 172 -60.5t66 -154.5t-66.5 -155t-171.5 -60h-149v-284h-95v714h244zM310 364q76 -1 114.5 34.5t38.5 100.5q0 64 -38.5 99.5t-114.5 35.5h-139v-270h139z" />
    <glyph glyph-name="Q" unicode="Q" horiz-adv-x="820" 
d="M780 359q0 -173 -117 -281q49 -38 98 -51l-34 -65q-37 3 -126 71q-82 -48 -191 -48q-168 0 -269 108.5t-101 265.5t101 265.5t269 108.5t269 -108.5t101 -265.5zM135 359q0 -120 74 -207t201 -87q66 0 122 27q-53 43 -107 67l40 60q50 -18 132 -82q88 85 88 222
q0 120 -74 207t-201 87t-201 -87t-74 -207z" />
    <glyph glyph-name="R" unicode="R" horiz-adv-x="649" 
d="M76 0v714h262q117 0 179.5 -57t62.5 -146q0 -64 -40 -117t-107 -69q42 -12 67.5 -50.5t47.5 -111.5q13 -41 19.5 -60.5t19 -45t30.5 -47.5v-10h-108q-15 22 -25.5 50.5t-20.5 65t-17 55.5q-22 60 -51.5 90.5t-88.5 30.5h-135v-292h-95zM171 372h163q74 0 112 37t38 102
q0 123 -156 123h-157v-262z" />
    <glyph glyph-name="S" unicode="S" horiz-adv-x="634" 
d="M468 509q-8 72 -45.5 107t-109.5 35q-65 0 -108.5 -30.5t-43.5 -91.5q0 -50 43.5 -77.5t127.5 -49.5q7 -2 36 -9.5t37.5 -10t34.5 -10.5t35.5 -13t30 -15.5t29 -19.5t22 -23.5t19 -29.5t10 -35t4.5 -42q0 -69 -41 -118.5t-100 -71t-127 -21.5q-125 0 -201.5 61.5
t-76.5 181.5h95q1 -80 51 -121.5t132 -41.5q69 0 121 33.5t52 94.5q0 13 -3 24.5t-6.5 20.5t-12.5 17.5t-15 14t-19.5 12t-21 9.5t-24.5 8.5t-24.5 7.5t-27.5 7.5t-27 7.5q-47 13 -72 20.5t-64 25t-59 36.5t-36 50t-17 70q-2 98 70.5 153.5t176.5 55.5q111 0 177.5 -57
t72.5 -165h-95z" />
    <glyph glyph-name="T" unicode="T" horiz-adv-x="581" 
d="M557 714v-80h-219v-634h-95v634h-219v80h533z" />
    <glyph glyph-name="U" unicode="U" horiz-adv-x="670" 
d="M604 254q0 -119 -68.5 -195t-200.5 -76t-200.5 76t-68.5 195v460h95v-460q0 -83 44 -137t130 -54t130 54t44 137v460h95v-460z" />
    <glyph glyph-name="V" unicode="V" horiz-adv-x="674" 
d="M560 714h104l-268 -713l-120 -1l-266 714h104l220 -617h4z" />
    <glyph glyph-name="W" unicode="W" horiz-adv-x="918" 
d="M10 714h100l125 -534l18 -79h1l18 79l121 534h130l117 -534l18 -80h1l19 80l130 534h100l-140 -534l-47 -180h-128l-134 619h-1l-101 -439l-41 -180h-127l-45 180z" />
    <glyph glyph-name="X" unicode="X" horiz-adv-x="637" 
d="M633 0h-122l-195 287l-199 -287h-113l257 367l-243 347h120l178 -269l190 269h112l-248 -349z" />
    <glyph glyph-name="Y" unicode="Y" horiz-adv-x="624" 
d="M16 714h110l186 -333h2l184 333h110l-249 -420v-294h-95v294z" />
    <glyph glyph-name="Z" unicode="Z" horiz-adv-x="618" 
d="M167 84h407v-84h-520v86l397 544h-375v84h486v-86z" />
    <glyph glyph-name="bracketleft" unicode="[" horiz-adv-x="275" 
d="M265 663h-107v-793h107v-68h-187v929h187v-68z" />
    <glyph glyph-name="backslash" unicode="\" horiz-adv-x="345" 
d="M357 -17h-73l-296 748h73z" />
    <glyph glyph-name="bracketright" unicode="]" horiz-adv-x="275" 
d="M10 -130h107v793h-107v68h187v-929h-187v68z" />
    <glyph glyph-name="asciicircum" unicode="^" horiz-adv-x="612" 
d="M274 697h64l218 -423h-86l-165 330l-162 -330h-87z" />
    <glyph glyph-name="underscore" unicode="_" horiz-adv-x="572" 
d="M6 -75h560v-50h-560v50z" />
    <glyph glyph-name="grave" unicode="`" horiz-adv-x="234" 
d="M137 714l89 -139h-66l-137 139h114z" />
    <glyph glyph-name="a" unicode="a" horiz-adv-x="540" 
d="M390 0q-2 25 -2 75v20h-1q-12 -41 -53 -74t-117 -33q-87 0 -134 46t-47 107q0 36 15 64t34.5 43.5t53 27t56 15.5t58 8.5t45.5 6.5q51 9 70.5 25.5t19.5 48.5q0 33 -30.5 53.5t-84.5 20.5q-48 0 -78.5 -25t-33.5 -68h-90q3 66 54 117.5t145 51.5q54 0 94 -14t61.5 -34
t34 -49.5t15.5 -53t3 -52.5v-222q0 -55 8 -105h-96zM233 61q66 0 111.5 44.5t45.5 134.5v69h-2q-9 -29 -38.5 -48.5t-104.5 -32.5q-63 -11 -91.5 -29t-28.5 -58q0 -36 30 -58t78 -22z" />
    <glyph glyph-name="b" unicode="b" horiz-adv-x="605" 
d="M333 529q108 0 172 -74t64 -195t-64 -196.5t-172 -75.5q-65 0 -113.5 35t-64.5 80h-1v-103h-90v714h90v-302h1q16 46 64.5 81.5t113.5 35.5zM315 65q79 0 121.5 54t42.5 141q0 86 -43 139.5t-121 53.5q-80 0 -122 -55.5t-42 -137.5t42 -138.5t122 -56.5z" />
    <glyph glyph-name="c" unicode="c" horiz-adv-x="566" 
d="M530 158q-46 -170 -229 -170q-119 0 -192 76t-73 194q0 119 73 195t192 76q94 0 150.5 -46t74.5 -121h-90q-38 93 -138 93q-77 0 -124.5 -56t-47.5 -141q0 -84 47.5 -139.5t124.5 -55.5q105 0 141 95h91z" />
    <glyph glyph-name="d" unicode="d" horiz-adv-x="599" 
d="M451 714h90v-714h-90v103h-1q-14 -49 -58.5 -82t-115.5 -33q-109 0 -174.5 76.5t-65.5 195.5q0 118 65.5 193.5t174.5 75.5q71 0 115.5 -34t58.5 -83h1v302zM290 65q88 0 126 54.5t38 140.5q0 81 -42.5 137t-121.5 56q-78 0 -121 -56t-43 -137q0 -83 42 -139t122 -56z
" />
    <glyph glyph-name="e" unicode="e" horiz-adv-x="565" 
d="M529 250v-16h-406q5 -80 50 -125.5t115 -45.5q119 0 145 91h88q-21 -81 -82 -123.5t-149 -42.5q-114 0 -184 75.5t-70 197.5q0 117 71 192.5t181 75.5q65 0 113.5 -24.5t75 -66t39 -88.5t13.5 -100zM124 306h314q-6 69 -44.5 109t-105.5 40q-68 0 -111.5 -40.5
t-52.5 -108.5z" />
    <glyph glyph-name="f" unicode="f" horiz-adv-x="306" 
d="M249 638q-31 0 -45.5 -12.5t-14.5 -44.5v-64h87v-74h-87v-443h-88v443h-71v74h71v68q0 59 30 94t95 35h56v-76h-33z" />
    <glyph glyph-name="g" unicode="g" horiz-adv-x="605" 
d="M451 517h90v-477q0 -111 -67 -174.5t-167 -63.5q-98 0 -164.5 47t-74.5 129h90q14 -100 149 -100q66 0 105 39.5t39 122.5v73h-1q-14 -49 -58.5 -82t-115.5 -33q-109 0 -174.5 74.5t-65.5 192.5q0 117 65 190.5t175 73.5q71 0 115.5 -34t58.5 -83h1v105zM126 265
q0 -82 42 -136t122 -54q88 0 126 53t38 132q0 81 -42.5 137t-121.5 56t-121.5 -54t-42.5 -134z" />
    <glyph glyph-name="h" unicode="h" 
d="M309 529q96 0 141.5 -54t45.5 -140v-335h-90v326q0 127 -109 127q-63 0 -103 -42.5t-40 -136.5v-274h-90v714h90v-302h1q11 48 52 82.5t102 34.5z" />
    <glyph glyph-name="i" unicode="i" horiz-adv-x="220" 
d="M158 610h-96v100h96v-100zM65 0v517h90v-517h-90z" />
    <glyph glyph-name="j" unicode="j" horiz-adv-x="237" 
d="M169 610h-96v100h96v-100zM166 519v-585q0 -59 -30 -94t-95 -35h-61v76h38q34 0 47 10.5t13 44.5v583h88z" />
    <glyph glyph-name="k" unicode="k" horiz-adv-x="515" 
d="M392 0l-183 236l-55 -55v-181h-90v714h90v-423l224 226h109l-216 -218l236 -299h-115z" />
    <glyph glyph-name="l" unicode="l" horiz-adv-x="226" 
d="M68 714h90v-714h-90v714z" />
    <glyph glyph-name="m" unicode="m" horiz-adv-x="824" 
d="M597 529q88 0 128.5 -54t40.5 -140v-335h-90v326q0 127 -100 127q-115 0 -115 -179v-274h-89v326q0 127 -98 127q-120 0 -120 -179v-274h-90v517h90v-105h1q10 49 46.5 83t94.5 34q124 0 154 -109h2q12 43 52.5 76t92.5 33z" />
    <glyph glyph-name="n" unicode="n" 
d="M309 529q96 0 141.5 -54t45.5 -140v-335h-90v326q0 127 -109 127q-63 0 -103 -42.5t-40 -136.5v-274h-90v517h90v-105h1q11 48 52 82.5t102 34.5z" />
    <glyph glyph-name="o" unicode="o" horiz-adv-x="590" 
d="M295 -12q-116 0 -187.5 77t-71.5 193t71.5 193.5t187.5 77.5t187.5 -77.5t71.5 -193.5t-71.5 -193t-187.5 -77zM295 64q74 0 121.5 56.5t47.5 137.5q0 82 -47.5 138.5t-121.5 56.5t-121.5 -56.5t-47.5 -138.5q0 -81 47.5 -137.5t121.5 -56.5z" />
    <glyph glyph-name="p" unicode="p" horiz-adv-x="605" 
d="M329 529q109 0 174.5 -75.5t65.5 -193.5q0 -119 -65.5 -195.5t-174.5 -76.5q-71 0 -115.5 33t-58.5 82h-1v-303h-90v717h90v-105h1q14 49 58.5 83t115.5 34zM315 64q80 0 122 56.5t42 139.5q0 81 -43 137t-121 56q-79 0 -121.5 -56t-42.5 -137q0 -87 38 -141.5t126 -54.5
z" />
    <glyph glyph-name="q" unicode="q" horiz-adv-x="605" 
d="M451 517h90v-717h-90v303h-1q-14 -49 -58.5 -82t-115.5 -33q-109 0 -174.5 76.5t-65.5 195.5q0 118 65.5 193.5t174.5 75.5q71 0 115.5 -34t58.5 -83h1v105zM290 64q88 0 126 54.5t38 141.5q0 81 -42.5 137t-121.5 56q-78 0 -121 -56t-43 -137q0 -83 42 -139.5t122 -56.5
z" />
    <glyph glyph-name="r" unicode="r" horiz-adv-x="334" 
d="M308 434q-71 -5 -112.5 -53.5t-41.5 -135.5v-245h-90v517h90l1 -125h1q17 62 57.5 95t94.5 37v-90z" />
    <glyph glyph-name="s" unicode="s" horiz-adv-x="479" 
d="M349 361q-4 47 -37 69.5t-77 22.5q-39 0 -68.5 -20t-29.5 -52q0 -26 25 -45t46 -25.5t70 -17.5l12 -3q157 -35 157 -142q0 -76 -64 -118t-141 -42q-48 0 -91.5 14.5t-79 54t-39.5 99.5h90q9 -48 39 -70t84 -22q45 0 78.5 19t33.5 60q0 12 -3.5 21.5t-13 17t-17 12.5
t-23.5 10t-25 7t-30 6.5t-29 6.5q-169 39 -169 153q0 69 58.5 110.5t132.5 41.5q80 0 136.5 -43t63.5 -125h-89z" />
    <glyph glyph-name="t" unicode="t" horiz-adv-x="310" 
d="M280 443h-99v-298q0 -32 14.5 -52.5t41.5 -20.5h32v-72h-41q-65 0 -100 40.5t-35 98.5v304h-77v74h77v127l85 40h3v-167h99v-74z" />
    <glyph glyph-name="u" unicode="u" 
d="M400 517h90v-517h-90v105h-1q-11 -48 -52 -82.5t-102 -34.5q-96 0 -141.5 54t-45.5 140v335h90v-326q0 -127 109 -127q63 0 103 42.5t40 136.5v274z" />
    <glyph glyph-name="v" unicode="v" horiz-adv-x="531" 
d="M22 517h98q24 -71 72.5 -213t73.5 -213h1l144 426h98q-32 -86 -96.5 -258.5t-97.5 -258.5h-99q-33 86 -97.5 258.5t-96.5 258.5z" />
    <glyph glyph-name="w" unicode="w" horiz-adv-x="777" 
d="M170 0l-148 517h94l83 -324q4 -16 11 -48t11 -48h1q4 15 11 47.5t11 47.5l85 325h118l84 -324l24 -97h1l23 97l82 324h94l-149 -517h-103l-92 345l-23 88h-1q-4 -15 -11 -44t-11 -44l-92 -345h-103z" />
    <glyph glyph-name="x" unicode="x" horiz-adv-x="536" 
d="M522 0h-109l-151 203l-145 -203h-103l201 266l-197 251h109l141 -182l141 182h102l-196 -244z" />
    <glyph glyph-name="y" unicode="y" horiz-adv-x="548" 
d="M22 517h96l164 -428h1l147 428h96l-234 -617q-37 -100 -131 -100h-70v76h57q15 0 26 4t16.5 7t13 16t8.5 16t9 22l18 45q-36 89 -108.5 266t-108.5 265z" />
    <glyph glyph-name="z" unicode="z" horiz-adv-x="496" 
d="M42 61l300 380h-62h-216v76h390v-54l-305 -387h57h256v-76h-420v61z" />
    <glyph glyph-name="braceleft" unicode="{" horiz-adv-x="345" 
d="M315 671h-50q-48 0 -48 -86v-183q0 -61 -30 -94.5t-57 -39.5v-3q28 -4 57.5 -36t29.5 -98v-183q0 -86 48 -86h50v-60h-70q-41 0 -74.5 35.5t-33.5 95.5v182q0 53 -24.5 85t-58.5 32v68q33 0 58 33.5t25 84.5v182q0 60 33.5 95.5t74.5 35.5h70v-60z" />
    <glyph glyph-name="bar" unicode="|" horiz-adv-x="234" 
d="M83 786h68v-1000h-68v1000z" />
    <glyph glyph-name="braceright" unicode="}" horiz-adv-x="345" 
d="M30 -138h50q48 0 48 86v183q0 61 30 94.5t57 39.5v3q-28 4 -57.5 36t-29.5 98v181q0 88 -48 88h-50v60h70q41 0 74.5 -35.5t33.5 -95.5v-182q0 -53 24.5 -85.5t58.5 -32.5v-68q-33 0 -58 -33.5t-25 -83.5v-182q0 -60 -33.5 -95.5t-74.5 -35.5h-70v60z" />
    <glyph glyph-name="asciitilde" unicode="~" horiz-adv-x="606" 
d="M534 269q-27 -41 -55 -63.5t-70 -22.5q-45 0 -102 33q-66 39 -115 39t-84 -76l-36 50q42 86 125 86q38 0 111 -32q10 -4 34.5 -16.5t40 -18t27.5 -5.5q7 0 14.5 2t13 4.5t12 8.5t10.5 9.5t10.5 12t9 12.5t9.5 14t9 13z" />
    <glyph glyph-name="uni00A0" unicode="&#xa0;" horiz-adv-x="290" 
 />
    <glyph glyph-name="exclamdown" unicode="&#xa1;" horiz-adv-x="250" 
d="M70 405v114h104v-114h-104zM169 55v-250h-95v250l23 274h49z" />
    <glyph glyph-name="sterling" unicode="&#xa3;" horiz-adv-x="568" 
d="M507 95l50 -65q-54 -47 -153 -47q-35 0 -99 20q-63 21 -135 21q-48 0 -100 -35l-39 59q72 62 94 91q38 49 38 95q0 41 -26 93h-94v45h69q-48 85 -48 156q0 92 66.5 147.5t161.5 55.5q229 0 236 -217h-91q-5 75 -38.5 108t-101.5 33q-60 0 -101.5 -37t-41.5 -93
q0 -19 2.5 -35.5t9 -33.5t11 -27t15 -30t14.5 -27h173v-45h-151q20 -38 20 -75q0 -33 -10 -59.5t-32.5 -51.5t-45.5 -43t-63 -46l2 -2q70 40 128 40q53 0 107 -14q61 -18 84 -18q42 0 89 37z" />
    <glyph glyph-name="yen" unicode="&#xa5;" horiz-adv-x="568" 
d="M238 174h-141v60h141v42l-18 33h-123v60h92l-183 345h109l174 -353l169 353h104l-178 -345h93v-60h-126l-18 -33v-42h144v-60h-144v-174h-95v174z" />
    <glyph glyph-name="brokenbar" unicode="&#xa6;" horiz-adv-x="234" 
d="M151 411h-68v250h68v-250zM83 161h68v-250h-68v250z" />
    <glyph glyph-name="section" unicode="&#xa7;" horiz-adv-x="568" 
d="M394 551q-1 46 -31 75.5t-78 29.5q-42 0 -68.5 -22t-26.5 -64q0 -21 11 -39.5t35.5 -36.5t45 -30t57.5 -32q11 -6 17 -9q38 -21 62 -36.5t51 -39.5t40 -53.5t13 -64.5q0 -46 -33 -82t-83 -56q71 -49 71 -129q0 -71 -52.5 -115.5t-134.5 -44.5q-90 0 -147.5 49t-63.5 136
h85q1 -50 36.5 -80t87.5 -30q40 0 70.5 22t30.5 61q0 11 -3 21.5t-9.5 20.5t-13 18t-19 17.5t-21 16t-25 16t-26 15t-29 16t-28.5 15.5q-39 21 -64.5 37.5t-53.5 42.5t-42 58t-14 71q0 45 34 81.5t81 49.5q-54 51 -54 113q0 74 55.5 118t129.5 44q86 0 138 -45t54 -135h-85z
M123 329q0 -10 1.5 -19.5t6.5 -18.5t8 -15.5t12 -14.5t13 -12t15.5 -11.5t15 -10t17.5 -11t16 -9.5q80 -42 140 -83q72 30 72 93q0 12 -3 22.5t-11.5 21.5t-13.5 17.5t-19.5 17t-18.5 13.5t-21.5 14t-18.5 12q-108 64 -138 85q-31 -10 -52 -35t-21 -56z" />
    <glyph glyph-name="dieresis" unicode="&#xa8;" horiz-adv-x="338" 
d="M34 714h90v-104h-90v104zM214 714h90v-104h-90v104z" />
    <glyph glyph-name="copyright" unicode="&#xa9;" horiz-adv-x="820" 
d="M411 -24q-159 0 -272 110.5t-113 272.5q0 160 113.5 269.5t271.5 109.5t270.5 -109.5t112.5 -269.5q0 -162 -112.5 -272.5t-270.5 -110.5zM411 40q128 0 217.5 91.5t89.5 227.5q0 133 -89.5 224t-217.5 91q-129 0 -219 -91t-90 -224q0 -136 89.5 -227.5t219.5 -91.5z
M582 294q-14 -56 -58 -88t-110 -32q-80 0 -130.5 51.5t-50.5 133.5q0 81 50.5 133t131.5 52q129 0 167 -119h-69q-26 60 -98 60q-49 0 -80.5 -35.5t-31.5 -90.5q0 -54 31.5 -89.5t80.5 -35.5q75 0 97 60h70z" />
    <glyph glyph-name="guillemotleft" unicode="&#xab;" horiz-adv-x="414" 
d="M10 266l127 214h80l-112 -214l112 -214h-80zM185 266l127 214h80l-112 -214l112 -214h-80z" />
    <glyph glyph-name="uni00AD" unicode="&#xad;" horiz-adv-x="401" 
d="M56 318h289v-80h-289v80z" />
    <glyph glyph-name="registered" unicode="&#xae;" horiz-adv-x="820" 
d="M411 -24q158 0 270.5 110.5t112.5 272.5q0 160 -112.5 269.5t-270.5 109.5q-159 0 -272 -109.5t-113 -269.5q0 -162 113 -272.5t272 -110.5zM411 40q-130 0 -219.5 91.5t-89.5 227.5q0 133 90 224t219 91q127 0 217 -91.5t90 -223.5q0 -136 -89.5 -227.5t-217.5 -91.5z
M531 268q3 -9 7.5 -27.5t9 -30t11.5 -23.5v-4h-71q-9 11 -16.5 42t-10.5 39q-10 27 -23 40t-40 13h-43v-134h-70v357h133q61 0 95.5 -28t34.5 -74q0 -37 -19.5 -62.5t-50.5 -33.5q21 -8 32 -24.5t21 -49.5zM414 374q30 0 47.5 15.5t17.5 41.5q0 50 -66 50h-58v-107h59z" />
    <glyph glyph-name="macron" unicode="&#xaf;" horiz-adv-x="401" 
d="M30 682h341v-55h-341v55z" />
    <glyph glyph-name="plusminus" unicode="&#xb1;" horiz-adv-x="648" 
d="M72 341h216v164h72v-164h216v-72h-216v-165h-72v165h-216v72zM72 70h504v-70h-504v70z" />
    <glyph glyph-name="acute" unicode="&#xb4;" horiz-adv-x="255" 
d="M122 714h114l-137 -139h-66z" />
    <glyph glyph-name="paragraph" unicode="&#xb6;" horiz-adv-x="612" 
d="M522 -155h-66v814h-125v-814h-66v461q-90 0 -151.5 60t-61.5 140q0 98 62 153t168 55h240v-869z" />
    <glyph glyph-name="periodcentered" unicode="&#xb7;" horiz-adv-x="290" 
d="M145 375q26 0 45 -19t19 -45q0 -24 -19.5 -44t-43.5 -20q-26 0 -45.5 19t-19.5 45t19 45t45 19z" />
    <glyph glyph-name="cedilla" unicode="&#xb8;" horiz-adv-x="260" 
d="M40 -141q29 -19 61 -19q24 0 43 7.5t19 23.5q0 14 -13 22.5t-34 8.5q-17 0 -41 -8l-27 39l60 67h53l-42 -53l2 -2q10 7 33 7q35 0 59.5 -19t24.5 -54q0 -46 -37.5 -67.5t-86.5 -21.5q-50 0 -93 20z" />
    <glyph glyph-name="guillemotright" unicode="&#xbb;" horiz-adv-x="414" 
d="M229 266l-127 -214h-80l112 214l-112 214h80zM404 266l-127 -214h-80l112 214l-112 214h80z" />
    <glyph glyph-name="questiondown" unicode="&#xbf;" horiz-adv-x="549" 
d="M324 405h-104v114h104v-114zM489 35v-28q0 -98 -61 -158.5t-157 -60.5q-95 0 -153 55.5t-58 144.5q0 39 15 73.5t28.5 51t42.5 46.5q53 54 68 82q17 31 17 65v23h90v-31q0 -45 -17.5 -82t-43 -62.5t-50.5 -48.5t-42.5 -53t-17.5 -64q0 -55 32.5 -89.5t88.5 -34.5
q57 0 92.5 39t35.5 104v28h90z" />
    <glyph glyph-name="Agrave" unicode="&#xc0;" horiz-adv-x="707" 
d="M175 885h134l126 -113h-100zM18 0l276 714h119l276 -714h-98l-79 209h-317l-79 -209h-98zM224 287h259l-128 342h-3z" />
    <glyph glyph-name="Aacute" unicode="&#xc1;" horiz-adv-x="707" 
d="M235 772l126 113h134l-160 -113h-100zM18 0l276 714h119l276 -714h-98l-79 209h-317l-79 -209h-98zM224 287h259l-128 342h-3z" />
    <glyph glyph-name="Acircumflex" unicode="&#xc2;" horiz-adv-x="707" 
d="M191 754l113 127h100l113 -127h-100l-63 78l-63 -78h-100zM18 0l276 714h119l276 -714h-98l-79 209h-317l-79 -209h-98zM224 287h259l-128 342h-3z" />
    <glyph glyph-name="Atilde" unicode="&#xc3;" horiz-adv-x="707" 
d="M182 777q23 110 106 110q28 0 73.5 -20t65.5 -20q33 0 46 44h52q-7 -49 -33 -80t-68 -31q-28 0 -75 19.5t-66 19.5q-33 0 -49 -42h-52zM18 0l276 714h119l276 -714h-98l-79 209h-317l-79 -209h-98zM224 287h259l-128 342h-3z" />
    <glyph glyph-name="Adieresis" unicode="&#xc4;" horiz-adv-x="707" 
d="M215 782v104h90v-104h-90zM403 782v104h90v-104h-90zM18 0l276 714h119l276 -714h-98l-79 209h-317l-79 -209h-98zM224 287h259l-128 342h-3z" />
    <glyph glyph-name="Aring" unicode="&#xc5;" horiz-adv-x="707" 
d="M246 877q0 45 32 76.5t76 31.5t76 -31.5t32 -76.5t-32 -76.5t-76 -31.5t-76 31.5t-32 76.5zM293 876q0 -27 17 -44.5t44 -17.5t44 17.5t17 44.5t-17 44.5t-44 17.5t-44 -17.5t-17 -44.5zM18 0l276 714h119l276 -714h-98l-79 209h-317l-79 -209h-98zM224 287h259l-128 342
h-3z" />
    <glyph glyph-name="AE" unicode="&#xc6;" horiz-adv-x="1004" 
d="M18 0l405 714h526v-80h-354v-231h333v-80h-333v-243h357v-80h-452v221h-252l-123 -221h-107zM291 299h209v335h-22z" />
    <glyph glyph-name="Ccedilla" unicode="&#xc7;" horiz-adv-x="772" 
d="M40 357q0 158 97 264t267 106q244 0 321 -223h-95q-31 72 -83 107.5t-143 35.5q-128 0 -198.5 -83.5t-70.5 -206.5t70.5 -206.5t198.5 -83.5q177 0 227 144h95q-21 -88 -97.5 -151.5t-193.5 -71.5l-31 -39l2 -2q10 7 33 7q35 0 59.5 -19t24.5 -54q0 -46 -37.5 -67.5
t-86.5 -21.5q-50 0 -93 20l19 51q29 -19 67 -19q56 0 56 31q0 29 -47 29q-17 0 -41 -8l-27 39l47 53q-159 8 -249.5 112.5t-90.5 256.5z" />
    <glyph glyph-name="Egrave" unicode="&#xc8;" horiz-adv-x="580" 
d="M142 885h134l126 -113h-100zM76 0v714h449v-80h-354v-231h333v-80h-333v-243h357v-80h-452z" />
    <glyph glyph-name="Eacute" unicode="&#xc9;" horiz-adv-x="580" 
d="M231 772l126 113h134l-160 -113h-100zM76 0v714h449v-80h-354v-231h333v-80h-333v-243h357v-80h-452z" />
    <glyph glyph-name="Ecircumflex" unicode="&#xca;" horiz-adv-x="580" 
d="M145 754l113 127h100l113 -127h-100l-63 78l-63 -78h-100zM76 0v714h449v-80h-354v-231h333v-80h-333v-243h357v-80h-452z" />
    <glyph glyph-name="Edieresis" unicode="&#xcb;" horiz-adv-x="580" 
d="M174 782v104h90v-104h-90zM362 782v104h90v-104h-90zM76 0v714h449v-80h-354v-231h333v-80h-333v-243h357v-80h-452z" />
    <glyph glyph-name="Igrave" unicode="&#xcc;" horiz-adv-x="263" 
d="M-32 885h134l126 -113h-100zM84 0v714h95v-714h-95z" />
    <glyph glyph-name="Iacute" unicode="&#xcd;" horiz-adv-x="263" 
d="M43 772l126 113h134l-160 -113h-100zM84 0v714h95v-714h-95z" />
    <glyph glyph-name="Icircumflex" unicode="&#xce;" horiz-adv-x="263" 
d="M-32 754l113 127h100l113 -127h-100l-63 78l-63 -78h-100zM84 0v714h95v-714h-95z" />
    <glyph glyph-name="Idieresis" unicode="&#xcf;" horiz-adv-x="263" 
d="M-4 782v104h90v-104h-90zM184 782v104h90v-104h-90zM84 0v714h95v-714h-95z" />
    <glyph glyph-name="Eth" unicode="&#xd0;" horiz-adv-x="698" 
d="M14 319v68h62v327h215q173 0 270 -93t97 -252q0 -161 -97 -265t-264 -104h-221v319h-62zM171 80h129q114 0 188.5 75.5t74.5 213.5q0 131 -74 198t-193 67h-125v-247h222v-68h-222v-239z" />
    <glyph glyph-name="Ntilde" unicode="&#xd1;" horiz-adv-x="719" 
d="M188 777q23 110 106 110q28 0 73.5 -20t65.5 -20q33 0 46 44h52q-7 -49 -33 -80t-68 -31q-28 0 -75 19.5t-66 19.5q-33 0 -49 -42h-52zM76 0v714h114l276 -451l82 -130v146v435h95v-714h-117l-275 448q-14 21 -40 63.5t-40 63.5v-140v-435h-95z" />
    <glyph glyph-name="Ograve" unicode="&#xd2;" horiz-adv-x="820" 
d="M242 885h134l126 -113h-100zM40 357q0 157 101 265.5t269 108.5t269 -108.5t101 -265.5t-101 -265.5t-269 -108.5t-269 108.5t-101 265.5zM135 357q0 -120 74 -207t201 -87t201 87t74 207t-74 207t-201 87t-201 -87t-74 -207z" />
    <glyph glyph-name="Oacute" unicode="&#xd3;" horiz-adv-x="820" 
d="M325 772l126 113h134l-160 -113h-100zM40 357q0 157 101 265.5t269 108.5t269 -108.5t101 -265.5t-101 -265.5t-269 -108.5t-269 108.5t-101 265.5zM135 357q0 -120 74 -207t201 -87t201 87t74 207t-74 207t-201 87t-201 -87t-74 -207z" />
    <glyph glyph-name="Ocircumflex" unicode="&#xd4;" horiz-adv-x="820" 
d="M255 754l113 127h100l113 -127h-100l-63 78l-63 -78h-100zM40 357q0 157 101 265.5t269 108.5t269 -108.5t101 -265.5t-101 -265.5t-269 -108.5t-269 108.5t-101 265.5zM135 357q0 -120 74 -207t201 -87t201 87t74 207t-74 207t-201 87t-201 -87t-74 -207z" />
    <glyph glyph-name="Otilde" unicode="&#xd5;" horiz-adv-x="820" 
d="M247 777q23 110 106 110q28 0 73.5 -20t65.5 -20q33 0 46 44h52q-7 -49 -33 -80t-68 -31q-28 0 -75 19.5t-66 19.5q-33 0 -49 -42h-52zM40 357q0 157 101 265.5t269 108.5t269 -108.5t101 -265.5t-101 -265.5t-269 -108.5t-269 108.5t-101 265.5zM135 357q0 -120 74 -207
t201 -87t201 87t74 207t-74 207t-201 87t-201 -87t-74 -207z" />
    <glyph glyph-name="Odieresis" unicode="&#xd6;" horiz-adv-x="820" 
d="M279 782v104h90v-104h-90zM467 782v104h90v-104h-90zM40 357q0 157 101 265.5t269 108.5t269 -108.5t101 -265.5t-101 -265.5t-269 -108.5t-269 108.5t-101 265.5zM135 357q0 -120 74 -207t201 -87t201 87t74 207t-74 207t-201 87t-201 -87t-74 -207z" />
    <glyph glyph-name="multiply" unicode="&#xd7;" horiz-adv-x="616" 
d="M72 428l62 62l174 -174l174 174l62 -62l-174 -174l174 -174l-62 -62l-174 174l-174 -174l-62 62l174 174z" />
    <glyph glyph-name="Oslash" unicode="&#xd8;" horiz-adv-x="824" 
d="M40 357q0 157 101 265.5t269 108.5t271 -111l72 70l31 -31l-75 -73q71 -99 71 -229q0 -157 -101 -265.5t-269 -108.5q-137 0 -236 78l-82 -80l-32 30l82 80q-102 107 -102 266zM135 357q0 -120 71 -203l411 403q-76 94 -207 94q-127 0 -201 -87t-74 -207zM237 123
q71 -60 173 -60q127 0 201 87t74 207q0 92 -43 163z" />
    <glyph glyph-name="Ugrave" unicode="&#xd9;" horiz-adv-x="670" 
d="M183 885h134l126 -113h-100zM66 254v460h95v-460q0 -83 44 -137t130 -54t130 54t44 137v460h95v-460q0 -119 -68.5 -195t-200.5 -76t-200.5 76t-68.5 195z" />
    <glyph glyph-name="Uacute" unicode="&#xda;" horiz-adv-x="670" 
d="M259 772l126 113h134l-160 -113h-100zM66 254v460h95v-460q0 -83 44 -137t130 -54t130 54t44 137v460h95v-460q0 -119 -68.5 -195t-200.5 -76t-200.5 76t-68.5 195z" />
    <glyph glyph-name="Ucircumflex" unicode="&#xdb;" horiz-adv-x="670" 
d="M172 754l113 127h100l113 -127h-100l-63 78l-63 -78h-100zM66 254v460h95v-460q0 -83 44 -137t130 -54t130 54t44 137v460h95v-460q0 -119 -68.5 -195t-200.5 -76t-200.5 76t-68.5 195z" />
    <glyph glyph-name="Udieresis" unicode="&#xdc;" horiz-adv-x="670" 
d="M196 782v104h90v-104h-90zM384 782v104h90v-104h-90zM66 254v460h95v-460q0 -83 44 -137t130 -54t130 54t44 137v460h95v-460q0 -119 -68.5 -195t-200.5 -76t-200.5 76t-68.5 195z" />
    <glyph glyph-name="Yacute" unicode="&#xdd;" horiz-adv-x="624" 
d="M248 772l126 113h134l-160 -113h-100zM16 714h110l186 -333h2l184 333h110l-249 -420v-294h-95v294z" />
    <glyph glyph-name="Thorn" unicode="&#xde;" horiz-adv-x="660" 
d="M84 0v714h95v-114h218q106 0 162.5 -55.5t56.5 -156.5t-56.5 -156t-162.5 -54h-218v-178h-95zM179 258h186q156 -1 156 130q0 132 -156 132h-186v-262z" />
    <glyph glyph-name="germandbls" unicode="&#xdf;" horiz-adv-x="550" 
d="M245 416q140 5 140 125q0 54 -29 83.5t-77 29.5q-58 0 -88.5 -31t-30.5 -109v-514h-90v531q0 89 56.5 144.5t146.5 55.5q86 0 144 -47t58 -130q0 -161 -174 -164v-4q104 1 156.5 -50.5t52.5 -133.5q0 -96 -62 -154t-161 -58q-53 0 -82 8v78q26 -9 73 -9q72 0 108 37
t36 102q0 85 -36.5 113.5t-120.5 32.5q-3 0 -9.5 0.5t-10.5 0.5v63z" />
    <glyph glyph-name="agrave" unicode="&#xe0;" horiz-adv-x="540" 
d="M346 577h-66l-137 139h114zM390 0q-2 25 -2 75v20h-1q-12 -41 -53 -74t-117 -33q-87 0 -134 46t-47 107q0 36 15 64t34.5 43.5t53 27t56 15.5t58 8.5t45.5 6.5q51 9 70.5 25.5t19.5 48.5q0 33 -30.5 53.5t-84.5 20.5q-48 0 -78.5 -25t-33.5 -68h-90q3 66 54 117.5
t145 51.5q54 0 94 -14t61.5 -34t34 -49.5t15.5 -53t3 -52.5v-222q0 -55 8 -105h-96zM233 61q66 0 111.5 44.5t45.5 134.5v69h-2q-9 -29 -38.5 -48.5t-104.5 -32.5q-63 -11 -91.5 -29t-28.5 -58q0 -36 30 -58t78 -22z" />
    <glyph glyph-name="aacute" unicode="&#xe1;" horiz-adv-x="540" 
d="M434 716l-137 -139h-66l89 139h114zM390 0q-2 25 -2 75v20h-1q-12 -41 -53 -74t-117 -33q-87 0 -134 46t-47 107q0 36 15 64t34.5 43.5t53 27t56 15.5t58 8.5t45.5 6.5q51 9 70.5 25.5t19.5 48.5q0 33 -30.5 53.5t-84.5 20.5q-48 0 -78.5 -25t-33.5 -68h-90
q3 66 54 117.5t145 51.5q54 0 94 -14t61.5 -34t34 -49.5t15.5 -53t3 -52.5v-222q0 -55 8 -105h-96zM233 61q66 0 111.5 44.5t45.5 134.5v69h-2q-9 -29 -38.5 -48.5t-104.5 -32.5q-63 -11 -91.5 -29t-28.5 -58q0 -36 30 -58t78 -22z" />
    <glyph glyph-name="acircumflex" unicode="&#xe2;" horiz-adv-x="540" 
d="M276 669l-66 -84h-94l113 131h94l113 -131h-94zM390 0q-2 25 -2 75v20h-1q-12 -41 -53 -74t-117 -33q-87 0 -134 46t-47 107q0 36 15 64t34.5 43.5t53 27t56 15.5t58 8.5t45.5 6.5q51 9 70.5 25.5t19.5 48.5q0 33 -30.5 53.5t-84.5 20.5q-48 0 -78.5 -25t-33.5 -68h-90
q3 66 54 117.5t145 51.5q54 0 94 -14t61.5 -34t34 -49.5t15.5 -53t3 -52.5v-222q0 -55 8 -105h-96zM233 61q66 0 111.5 44.5t45.5 134.5v69h-2q-9 -29 -38.5 -48.5t-104.5 -32.5q-63 -11 -91.5 -29t-28.5 -58q0 -36 30 -58t78 -22z" />
    <glyph glyph-name="atilde" unicode="&#xe3;" horiz-adv-x="540" 
d="M220 647q-32 0 -49 -42h-52q23 110 106 110q28 0 73.5 -20t65.5 -20q33 0 46 44h52q-6 -44 -32 -79q-23 -32 -69 -32q-31 0 -75 20q-41 19 -66 19zM390 0q-2 25 -2 75v20h-1q-12 -41 -53 -74t-117 -33q-87 0 -134 46t-47 107q0 36 15 64t34.5 43.5t53 27t56 15.5t58 8.5
t45.5 6.5q51 9 70.5 25.5t19.5 48.5q0 33 -30.5 53.5t-84.5 20.5q-48 0 -78.5 -25t-33.5 -68h-90q3 66 54 117.5t145 51.5q54 0 94 -14t61.5 -34t34 -49.5t15.5 -53t3 -52.5v-222q0 -55 8 -105h-96zM233 61q66 0 111.5 44.5t45.5 134.5v69h-2q-9 -29 -38.5 -48.5
t-104.5 -32.5q-63 -11 -91.5 -29t-28.5 -58q0 -36 30 -58t78 -22z" />
    <glyph glyph-name="adieresis" unicode="&#xe4;" horiz-adv-x="540" 
d="M238 716v-104h-90v104h90zM418 716v-104h-90v104h90zM390 0q-2 25 -2 75v20h-1q-12 -41 -53 -74t-117 -33q-87 0 -134 46t-47 107q0 36 15 64t34.5 43.5t53 27t56 15.5t58 8.5t45.5 6.5q51 9 70.5 25.5t19.5 48.5q0 33 -30.5 53.5t-84.5 20.5q-48 0 -78.5 -25t-33.5 -68
h-90q3 66 54 117.5t145 51.5q54 0 94 -14t61.5 -34t34 -49.5t15.5 -53t3 -52.5v-222q0 -55 8 -105h-96zM233 61q66 0 111.5 44.5t45.5 134.5v69h-2q-9 -29 -38.5 -48.5t-104.5 -32.5q-63 -11 -91.5 -29t-28.5 -58q0 -36 30 -58t78 -22z" />
    <glyph glyph-name="aring" unicode="&#xe5;" horiz-adv-x="540" 
d="M280 571q-46 0 -79.5 33t-33.5 79t33.5 79t79.5 33t79.5 -33t33.5 -79t-33.5 -79t-79.5 -33zM280 750q-29 0 -48 -19.5t-19 -48.5t19 -48.5t48 -19.5t48 19.5t19 48.5t-19 48.5t-48 19.5zM390 0q-2 25 -2 75v20h-1q-12 -41 -53 -74t-117 -33q-87 0 -134 46t-47 107
q0 36 15 64t34.5 43.5t53 27t56 15.5t58 8.5t45.5 6.5q51 9 70.5 25.5t19.5 48.5q0 33 -30.5 53.5t-84.5 20.5q-48 0 -78.5 -25t-33.5 -68h-90q3 66 54 117.5t145 51.5q54 0 94 -14t61.5 -34t34 -49.5t15.5 -53t3 -52.5v-222q0 -55 8 -105h-96zM233 61q66 0 111.5 44.5
t45.5 134.5v69h-2q-9 -29 -38.5 -48.5t-104.5 -32.5q-63 -11 -91.5 -29t-28.5 -58q0 -36 30 -58t78 -22z" />
    <glyph glyph-name="ae" unicode="&#xe6;" horiz-adv-x="881" 
d="M36 141q0 36 15 64t34.5 43.5t53 27t56 15.5t58 8.5t45.5 6.5q51 9 70.5 25.5t19.5 48.5q0 33 -30.5 53.5t-84.5 20.5q-48 0 -78.5 -25t-33.5 -68h-90q3 66 54 117.5t145 51.5q137 0 176 -86q59 85 166 85q65 0 112.5 -24t72.5 -64t36.5 -82.5t11.5 -88.5v-36h-375
q4 -79 44 -125t98 -46q113 0 139 91h86q-44 -166 -223 -166q-144 0 -195 133q-52 -133 -202 -133q-87 0 -134 46t-47 107zM471 306h286q-12 149 -145 149q-61 0 -97.5 -40t-43.5 -109zM125 141q0 -36 30 -58t78 -22q66 0 111.5 44.5t45.5 134.5v69h-2q-9 -29 -38.5 -48.5
t-104.5 -32.5q-63 -11 -91.5 -29t-28.5 -58z" />
    <glyph glyph-name="ccedilla" unicode="&#xe7;" horiz-adv-x="566" 
d="M530 158q-42 -159 -205 -169l-32 -40l2 -2q10 7 33 7q35 0 59.5 -19t24.5 -54q0 -46 -37.5 -67.5t-86.5 -21.5q-50 0 -93 20l19 49q29 -19 61 -19q24 0 43 7.5t19 23.5q0 14 -13 22.5t-34 8.5q-17 0 -41 -8l-27 39l49 54q-107 10 -171 84.5t-64 184.5q0 119 73 195
t192 76q94 0 150.5 -46t74.5 -121h-90q-38 93 -138 93q-77 0 -124.5 -56t-47.5 -141q0 -84 47.5 -139.5t124.5 -55.5q105 0 141 95h91z" />
    <glyph glyph-name="egrave" unicode="&#xe8;" horiz-adv-x="565" 
d="M354 577h-66l-137 139h114zM529 250v-16h-406q5 -80 50 -125.5t115 -45.5q119 0 145 91h88q-21 -81 -82 -123.5t-149 -42.5q-114 0 -184 75.5t-70 197.5q0 117 71 192.5t181 75.5q65 0 113.5 -24.5t75 -66t39 -88.5t13.5 -100zM124 306h314q-6 69 -44.5 109t-105.5 40
q-68 0 -111.5 -40.5t-52.5 -108.5z" />
    <glyph glyph-name="eacute" unicode="&#xe9;" horiz-adv-x="565" 
d="M429 716l-137 -139h-66l89 139h114zM529 250v-16h-406q5 -80 50 -125.5t115 -45.5q119 0 145 91h88q-21 -81 -82 -123.5t-149 -42.5q-114 0 -184 75.5t-70 197.5q0 117 71 192.5t181 75.5q65 0 113.5 -24.5t75 -66t39 -88.5t13.5 -100zM124 306h314q-6 69 -44.5 109
t-105.5 40q-68 0 -111.5 -40.5t-52.5 -108.5z" />
    <glyph glyph-name="ecircumflex" unicode="&#xea;" horiz-adv-x="565" 
d="M290 669l-66 -84h-94l113 131h94l113 -131h-94zM529 250v-16h-406q5 -80 50 -125.5t115 -45.5q119 0 145 91h88q-21 -81 -82 -123.5t-149 -42.5q-114 0 -184 75.5t-70 197.5q0 117 71 192.5t181 75.5q65 0 113.5 -24.5t75 -66t39 -88.5t13.5 -100zM124 306h314
q-6 69 -44.5 109t-105.5 40q-68 0 -111.5 -40.5t-52.5 -108.5z" />
    <glyph glyph-name="edieresis" unicode="&#xeb;" horiz-adv-x="565" 
d="M250 716v-104h-90v104h90zM430 716v-104h-90v104h90zM529 250v-16h-406q5 -80 50 -125.5t115 -45.5q119 0 145 91h88q-21 -81 -82 -123.5t-149 -42.5q-114 0 -184 75.5t-70 197.5q0 117 71 192.5t181 75.5q65 0 113.5 -24.5t75 -66t39 -88.5t13.5 -100zM124 306h314
q-6 69 -44.5 109t-105.5 40q-68 0 -111.5 -40.5t-52.5 -108.5z" />
    <glyph glyph-name="igrave" unicode="&#xec;" horiz-adv-x="222" 
d="M81 716l89 -139h-66l-137 139h114zM66 0v517h90v-517h-90z" />
    <glyph glyph-name="iacute" unicode="&#xed;" horiz-adv-x="222" 
d="M149 716h114l-137 -139h-66zM66 0v517h90v-517h-90z" />
    <glyph glyph-name="icircumflex" unicode="&#xee;" horiz-adv-x="222" 
d="M-47 585l113 131h94l113 -131h-94l-66 84l-66 -84h-94zM66 0v517h90v-517h-90z" />
    <glyph glyph-name="idieresis" unicode="&#xef;" horiz-adv-x="222" 
d="M-22 716h90v-104h-90v104zM158 716h90v-104h-90v104zM66 0v517h90v-517h-90z" />
    <glyph glyph-name="ntilde" unicode="&#xf1;" horiz-adv-x="560" 
d="M224 647q-32 0 -49 -42h-52q23 110 106 110q28 0 73.5 -20t65.5 -20q33 0 46 44h52q-6 -44 -32 -79q-23 -32 -69 -32q-31 0 -75 20q-41 19 -66 19zM309 529q96 0 141.5 -54t45.5 -140v-335h-90v326q0 127 -109 127q-63 0 -103 -42.5t-40 -136.5v-274h-90v517h90v-105h1
q11 48 52 82.5t102 34.5z" />
    <glyph glyph-name="ograve" unicode="&#xf2;" horiz-adv-x="590" 
d="M267 716l89 -139h-66l-137 139h114zM295 -12q-116 0 -187.5 77t-71.5 193t71.5 193.5t187.5 77.5t187.5 -77.5t71.5 -193.5t-71.5 -193t-187.5 -77zM295 64q74 0 121.5 56.5t47.5 137.5q0 82 -47.5 138.5t-121.5 56.5t-121.5 -56.5t-47.5 -138.5q0 -81 47.5 -137.5
t121.5 -56.5z" />
    <glyph glyph-name="oacute" unicode="&#xf3;" horiz-adv-x="590" 
d="M320 716h114l-137 -139h-66zM295 -12q-116 0 -187.5 77t-71.5 193t71.5 193.5t187.5 77.5t187.5 -77.5t71.5 -193.5t-71.5 -193t-187.5 -77zM295 64q74 0 121.5 56.5t47.5 137.5q0 82 -47.5 138.5t-121.5 56.5t-121.5 -56.5t-47.5 -138.5q0 -81 47.5 -137.5t121.5 -56.5z
" />
    <glyph glyph-name="ocircumflex" unicode="&#xf4;" horiz-adv-x="590" 
d="M135 585l113 131h94l113 -131h-94l-66 84l-66 -84h-94zM295 -12q-116 0 -187.5 77t-71.5 193t71.5 193.5t187.5 77.5t187.5 -77.5t71.5 -193.5t-71.5 -193t-187.5 -77zM295 64q74 0 121.5 56.5t47.5 137.5q0 82 -47.5 138.5t-121.5 56.5t-121.5 -56.5t-47.5 -138.5
q0 -81 47.5 -137.5t121.5 -56.5z" />
    <glyph glyph-name="otilde" unicode="&#xf5;" horiz-adv-x="590" 
d="M415 719h52q-6 -44 -32 -79q-23 -32 -69 -32q-31 0 -75 20q-41 19 -66 19q-32 0 -49 -42h-52q23 110 106 110q28 0 73.5 -20t65.5 -20q33 0 46 44zM295 -12q-116 0 -187.5 77t-71.5 193t71.5 193.5t187.5 77.5t187.5 -77.5t71.5 -193.5t-71.5 -193t-187.5 -77zM295 64
q74 0 121.5 56.5t47.5 137.5q0 82 -47.5 138.5t-121.5 56.5t-121.5 -56.5t-47.5 -138.5q0 -81 47.5 -137.5t121.5 -56.5z" />
    <glyph glyph-name="odieresis" unicode="&#xf6;" horiz-adv-x="590" 
d="M160 716h90v-104h-90v104zM340 716h90v-104h-90v104zM295 -12q-116 0 -187.5 77t-71.5 193t71.5 193.5t187.5 77.5t187.5 -77.5t71.5 -193.5t-71.5 -193t-187.5 -77zM295 64q74 0 121.5 56.5t47.5 137.5q0 82 -47.5 138.5t-121.5 56.5t-121.5 -56.5t-47.5 -138.5
q0 -81 47.5 -137.5t121.5 -56.5z" />
    <glyph glyph-name="divide" unicode="&#xf7;" horiz-adv-x="648" 
d="M259 448q0 26 19 45.5t46 19.5t46 -19.5t19 -45.5q0 -25 -19.5 -45.5t-44.5 -20.5q-27 0 -46.5 19.5t-19.5 46.5zM72 291h504v-76h-504v76zM259 58q0 27 19 46.5t46 19.5t46 -19.5t19 -46.5q0 -24 -19.5 -44.5t-44.5 -20.5q-27 0 -46.5 19.5t-19.5 45.5z" />
    <glyph glyph-name="oslash" unicode="&#xf8;" horiz-adv-x="590" 
d="M485 448q69 -75 69 -190q0 -116 -71.5 -193t-187.5 -77q-101 0 -170 60l-63 -70l-28 24l65 72q-63 76 -63 184q0 116 71.5 193.5t187.5 77.5q94 0 164 -55l55 61l26 -26zM126 258q0 -66 33 -118l244 271q-47 42 -108 42q-74 0 -121.5 -56.5t-47.5 -138.5zM295 64
q74 0 121.5 56.5t47.5 137.5q0 73 -37 125l-245 -272q47 -47 113 -47z" />
    <glyph glyph-name="ugrave" unicode="&#xf9;" 
d="M345 577h-66l-137 139h114zM400 517h90v-517h-90v105h-1q-11 -48 -52 -82.5t-102 -34.5q-96 0 -141.5 54t-45.5 140v335h90v-326q0 -127 109 -127q63 0 103 42.5t40 136.5v274z" />
    <glyph glyph-name="uacute" unicode="&#xfa;" 
d="M432 716l-137 -139h-66l89 139h114zM400 517h90v-517h-90v105h-1q-11 -48 -52 -82.5t-102 -34.5q-96 0 -141.5 54t-45.5 140v335h90v-326q0 -127 109 -127q63 0 103 42.5t40 136.5v274z" />
    <glyph glyph-name="ucircumflex" unicode="&#xfb;" 
d="M274 669l-66 -84h-94l113 131h94l113 -131h-94zM400 517h90v-517h-90v105h-1q-11 -48 -52 -82.5t-102 -34.5q-96 0 -141.5 54t-45.5 140v335h90v-326q0 -127 109 -127q63 0 103 42.5t40 136.5v274z" />
    <glyph glyph-name="udieresis" unicode="&#xfc;" 
d="M235 716v-104h-90v104h90zM415 716v-104h-90v104h90zM400 517h90v-517h-90v105h-1q-11 -48 -52 -82.5t-102 -34.5q-96 0 -141.5 54t-45.5 140v335h90v-326q0 -127 109 -127q63 0 103 42.5t40 136.5v274z" />
    <glyph glyph-name="yacute" unicode="&#xfd;" horiz-adv-x="548" 
d="M301 716h114l-137 -139h-66zM22 517h96l164 -428h1l147 428h96l-234 -617q-37 -100 -131 -100h-70v76h57q15 0 26 4t16.5 7t13 16t8.5 16t9 22l18 45q-36 89 -108.5 266t-108.5 265z" />
    <glyph glyph-name="ydieresis" unicode="&#xff;" horiz-adv-x="548" 
d="M140 716h90v-104h-90v104zM320 716h90v-104h-90v104zM22 517h96l164 -428h1l147 428h96l-234 -617q-37 -100 -131 -100h-70v76h57q15 0 26 4t16.5 7t13 16t8.5 16t9 22l18 45q-36 89 -108.5 266t-108.5 265z" />
    <glyph glyph-name="Amacron" unicode="&#x100;" horiz-adv-x="707" 
d="M183 804v55h341v-55h-341zM18 0l276 714h119l276 -714h-98l-79 209h-317l-79 -209h-98zM224 287h259l-128 342h-3z" />
    <glyph glyph-name="amacron" unicode="&#x101;" horiz-adv-x="540" 
d="M454 684v-55h-341v55h341zM390 0q-2 25 -2 75v20h-1q-12 -41 -53 -74t-117 -33q-87 0 -134 46t-47 107q0 36 15 64t34.5 43.5t53 27t56 15.5t58 8.5t45.5 6.5q51 9 70.5 25.5t19.5 48.5q0 33 -30.5 53.5t-84.5 20.5q-48 0 -78.5 -25t-33.5 -68h-90q3 66 54 117.5
t145 51.5q54 0 94 -14t61.5 -34t34 -49.5t15.5 -53t3 -52.5v-222q0 -55 8 -105h-96zM233 61q66 0 111.5 44.5t45.5 134.5v69h-2q-9 -29 -38.5 -48.5t-104.5 -32.5q-63 -11 -91.5 -29t-28.5 -58q0 -36 30 -58t78 -22z" />
    <glyph glyph-name="Abreve" unicode="&#x102;" horiz-adv-x="707" 
d="M205 896h52q13 -35 34 -51t63 -16t63 16t34 51h52q-25 -122 -149 -122t-149 122zM18 0l276 714h119l276 -714h-98l-79 209h-317l-79 -209h-98zM224 287h259l-128 342h-3z" />
    <glyph glyph-name="abreve" unicode="&#x103;" horiz-adv-x="540" 
d="M280 593q-138 0 -158 138h50q24 -83 108 -83q40 0 63.5 20.5t39.5 62.5h51q-11 -65 -51.5 -101.5t-102.5 -36.5zM390 0q-2 25 -2 75v20h-1q-12 -41 -53 -74t-117 -33q-87 0 -134 46t-47 107q0 36 15 64t34.5 43.5t53 27t56 15.5t58 8.5t45.5 6.5q51 9 70.5 25.5
t19.5 48.5q0 33 -30.5 53.5t-84.5 20.5q-48 0 -78.5 -25t-33.5 -68h-90q3 66 54 117.5t145 51.5q54 0 94 -14t61.5 -34t34 -49.5t15.5 -53t3 -52.5v-222q0 -55 8 -105h-96zM233 61q66 0 111.5 44.5t45.5 134.5v69h-2q-9 -29 -38.5 -48.5t-104.5 -32.5q-63 -11 -91.5 -29
t-28.5 -58q0 -36 30 -58t78 -22z" />
    <glyph glyph-name="Aogonek" unicode="&#x104;" horiz-adv-x="707" 
d="M18 0l276 714h119l276 -714h-69q-81 -66 -81 -116q0 -17 9.5 -29.5t28.5 -12.5q38 0 62 30l32 -18q-36 -62 -108 -62q-92 0 -92 82q0 30 28 65.5t92 60.5l-79 209h-317l-79 -209h-98zM224 287h259l-128 342h-3z" />
    <glyph glyph-name="aogonek" unicode="&#x105;" horiz-adv-x="564" 
d="M478 -130l32 -18q-36 -62 -108 -62q-37 0 -64.5 20t-27.5 61q0 46 38 84q32 32 78 45h-36q-2 25 -2 75v20h-1q-12 -41 -53 -74t-117 -33q-87 0 -134 46t-47 107q0 36 15 64t34.5 43.5t53 27t56 15.5t58 8.5t45.5 6.5q51 9 70.5 25.5t19.5 48.5q0 33 -30.5 53.5
t-84.5 20.5q-48 0 -78.5 -25t-33.5 -68h-90q3 66 54 117.5t145 51.5q54 0 94 -14t61.5 -34t34 -49.5t15.5 -53t3 -52.5v-222q0 -54 8 -104v-1h-4q-52 -14 -85 -57q-29 -37 -23 -70t42 -33q38 0 62 30zM390 240v69h-2q-9 -29 -38.5 -48.5t-104.5 -32.5q-63 -11 -91.5 -29
t-28.5 -58q0 -36 30 -58t78 -22q66 0 111.5 44.5t45.5 134.5z" />
    <glyph glyph-name="Cacute" unicode="&#x106;" horiz-adv-x="772" 
d="M326 772l126 113h134l-160 -113h-100zM726 211q-23 -94 -108 -159t-214 -65q-170 0 -267 106t-97 264t97 264t267 106q244 0 321 -223h-95q-31 72 -83 107.5t-143 35.5q-128 0 -198.5 -83.5t-70.5 -206.5t70.5 -206.5t198.5 -83.5q177 0 227 144h95z" />
    <glyph glyph-name="cacute" unicode="&#x107;" horiz-adv-x="566" 
d="M329 716h114l-137 -139h-66zM530 158q-46 -170 -229 -170q-119 0 -192 76t-73 194q0 119 73 195t192 76q94 0 150.5 -46t74.5 -121h-90q-38 93 -138 93q-77 0 -124.5 -56t-47.5 -141q0 -84 47.5 -139.5t124.5 -55.5q105 0 141 95h91z" />
    <glyph glyph-name="Ccircumflex" unicode="&#x108;" horiz-adv-x="772" 
d="M239 754l113 127h100l113 -127h-100l-63 78l-63 -78h-100zM40 357q0 158 97 264t267 106q244 0 321 -223h-95q-31 72 -83 107.5t-143 35.5q-128 0 -198.5 -83.5t-70.5 -206.5t70.5 -206.5t198.5 -83.5q177 0 227 144h95q-23 -94 -108 -159t-214 -65q-170 0 -267 106
t-97 264z" />
    <glyph glyph-name="ccircumflex" unicode="&#x109;" horiz-adv-x="566" 
d="M137 585l113 131h94l113 -131h-94l-66 84l-66 -84h-94zM530 158q-46 -170 -229 -170q-119 0 -192 76t-73 194q0 119 73 195t192 76q94 0 150.5 -46t74.5 -121h-90q-38 93 -138 93q-77 0 -124.5 -56t-47.5 -141q0 -84 47.5 -139.5t124.5 -55.5q105 0 141 95h91z" />
    <glyph glyph-name="Cdotaccent" unicode="&#x10a;" horiz-adv-x="772" 
d="M360 792v100h90v-100h-90zM726 211q-23 -94 -108 -159t-214 -65q-170 0 -267 106t-97 264t97 264t267 106q244 0 321 -223h-95q-31 72 -83 107.5t-143 35.5q-128 0 -198.5 -83.5t-70.5 -206.5t70.5 -206.5t198.5 -83.5q177 0 227 144h95z" />
    <glyph glyph-name="cdotaccent" unicode="&#x10b;" horiz-adv-x="566" 
d="M344 606h-90v104h90v-104zM530 158q-46 -170 -229 -170q-119 0 -192 76t-73 194q0 119 73 195t192 76q94 0 150.5 -46t74.5 -121h-90q-38 93 -138 93q-77 0 -124.5 -56t-47.5 -141q0 -84 47.5 -139.5t124.5 -55.5q105 0 141 95h91z" />
    <glyph glyph-name="Ccaron" unicode="&#x10c;" horiz-adv-x="772" 
d="M235 885h89l81 -89l78 89h92l-124 -135h-93zM40 357q0 158 97 264t267 106q244 0 321 -223h-95q-31 72 -83 107.5t-143 35.5q-128 0 -198.5 -83.5t-70.5 -206.5t70.5 -206.5t198.5 -83.5q177 0 227 144h95q-23 -94 -108 -159t-214 -65q-170 0 -267 106t-97 264z" />
    <glyph glyph-name="ccaron" unicode="&#x10d;" horiz-adv-x="566" 
d="M341 581h-93l-123 135h89l81 -89l78 89h92zM439 158h91q-46 -170 -229 -170q-119 0 -192 76t-73 194q0 119 73 195t192 76q94 0 150.5 -46t74.5 -121h-90q-38 93 -138 93q-77 0 -124.5 -56t-47.5 -141q0 -84 47.5 -139.5t124.5 -55.5q105 0 141 95z" />
    <glyph glyph-name="Dcaron" unicode="&#x10e;" horiz-adv-x="698" 
d="M146 885h89l81 -89l78 89h92l-124 -135h-93zM76 0v714h215q173 0 270 -93t97 -252q0 -161 -97 -265t-264 -104h-221zM171 80h129q114 0 188.5 75.5t74.5 213.5q0 131 -74 198t-193 67h-125v-554z" />
    <glyph glyph-name="dcaron" unicode="&#x10f;" horiz-adv-x="599" 
d="M451 412v302h90v-714h-90v103h-1q-14 -49 -58.5 -82t-115.5 -33q-109 0 -174.5 76.5t-65.5 195.5q0 118 65.5 193.5t174.5 75.5q71 0 115.5 -34t58.5 -83h1zM606 714h109l-75 -143h-60zM290 65q88 0 126 54.5t38 140.5q0 81 -42.5 137t-121.5 56q-78 0 -121 -56t-43 -137
q0 -83 42 -139t122 -56z" />
    <glyph glyph-name="Dcroat" unicode="&#x110;" horiz-adv-x="698" 
d="M14 319v68h62v327h215q173 0 270 -93t97 -252q0 -161 -97 -265t-264 -104h-221v319h-62zM171 80h129q114 0 188.5 75.5t74.5 213.5q0 131 -74 198t-193 67h-125v-247h222v-68h-222v-239z" />
    <glyph glyph-name="dcroat" unicode="&#x111;" horiz-adv-x="599" 
d="M647 639v-56h-106v-583h-90v103h-1q-14 -49 -58.5 -82t-115.5 -33q-109 0 -174.5 76.5t-65.5 195.5q0 118 65.5 193.5t174.5 75.5q71 0 115.5 -34t58.5 -83h1v171h-145v56h145v75h90v-75h106zM290 65q88 0 126 54.5t38 140.5q0 81 -42.5 137t-121.5 56q-78 0 -121 -56
t-43 -137q0 -83 42 -139t122 -56z" />
    <glyph glyph-name="Emacron" unicode="&#x112;" horiz-adv-x="580" 
d="M142 804v55h341v-55h-341zM76 0v714h449v-80h-354v-231h333v-80h-333v-243h357v-80h-452z" />
    <glyph glyph-name="emacron" unicode="&#x113;" horiz-adv-x="565" 
d="M462 684v-55h-341v55h341zM529 250v-16h-406q5 -80 50 -125.5t115 -45.5q119 0 145 91h88q-21 -81 -82 -123.5t-149 -42.5q-114 0 -184 75.5t-70 197.5q0 117 71 192.5t181 75.5q65 0 113.5 -24.5t75 -66t39 -88.5t13.5 -100zM124 306h314q-6 69 -44.5 109t-105.5 40
q-68 0 -111.5 -40.5t-52.5 -108.5z" />
    <glyph glyph-name="Ebreve" unicode="&#x114;" horiz-adv-x="580" 
d="M163 896h52q13 -35 34 -51t63 -16t63 16t34 51h52q-25 -122 -149 -122t-149 122zM76 0v714h449v-80h-354v-231h333v-80h-333v-243h357v-80h-452z" />
    <glyph glyph-name="ebreve" unicode="&#x115;" horiz-adv-x="565" 
d="M296 593q-138 0 -158 138h50q24 -83 108 -83q40 0 63.5 20.5t39.5 62.5h51q-11 -65 -51.5 -101.5t-102.5 -36.5zM529 250v-16h-406q5 -80 50 -125.5t115 -45.5q119 0 145 91h88q-21 -81 -82 -123.5t-149 -42.5q-114 0 -184 75.5t-70 197.5q0 117 71 192.5t181 75.5
q65 0 113.5 -24.5t75 -66t39 -88.5t13.5 -100zM124 306h314q-6 69 -44.5 109t-105.5 40q-68 0 -111.5 -40.5t-52.5 -108.5z" />
    <glyph glyph-name="Edotaccent" unicode="&#x116;" horiz-adv-x="580" 
d="M268 792v100h90v-100h-90zM76 0v714h449v-80h-354v-231h333v-80h-333v-243h357v-80h-452z" />
    <glyph glyph-name="edotaccent" unicode="&#x117;" horiz-adv-x="565" 
d="M332 708v-104h-90v104h90zM529 250v-16h-406q5 -80 50 -125.5t115 -45.5q119 0 145 91h88q-21 -81 -82 -123.5t-149 -42.5q-114 0 -184 75.5t-70 197.5q0 117 71 192.5t181 75.5q65 0 113.5 -24.5t75 -66t39 -88.5t13.5 -100zM124 306h314q-6 69 -44.5 109t-105.5 40
q-68 0 -111.5 -40.5t-52.5 -108.5z" />
    <glyph glyph-name="Eogonek" unicode="&#x118;" horiz-adv-x="605" 
d="M76 0v714h449v-80h-354v-231h333v-80h-333v-243h357v-80h-26q-81 -66 -81 -116q0 -17 9.5 -29.5t28.5 -12.5q38 0 62 30l32 -18q-36 -62 -108 -62q-92 0 -92 82q0 30 28.5 65.5t92.5 60.5h-398z" />
    <glyph glyph-name="eogonek" unicode="&#x119;" horiz-adv-x="565" 
d="M529 250v-16h-406q5 -80 50 -125.5t115 -45.5q119 0 145 91h88q-19 -73 -70.5 -114.5t-125.5 -49.5l-28 -28q-42 -42 -42 -80q0 -17 9.5 -29.5t28.5 -12.5q38 0 62 30l32 -18q-36 -62 -108 -62q-92 0 -92 82q0 40 53 88q12 12 37 28q-109 4 -175 79.5t-66 193.5
q0 117 71 192.5t181 75.5q65 0 113.5 -24.5t75 -66t39 -88.5t13.5 -100zM124 306h314q-6 69 -44.5 109t-105.5 40q-68 0 -111.5 -40.5t-52.5 -108.5z" />
    <glyph glyph-name="Ecaron" unicode="&#x11a;" horiz-adv-x="580" 
d="M140 885h89l81 -89l78 89h92l-124 -135h-93zM76 0v714h449v-80h-354v-231h333v-80h-333v-243h357v-80h-452z" />
    <glyph glyph-name="ecaron" unicode="&#x11b;" horiz-adv-x="565" 
d="M341 581h-93l-123 135h89l81 -89l78 89h92zM529 250v-16h-406q5 -80 50 -125.5t115 -45.5q119 0 145 91h88q-21 -81 -82 -123.5t-149 -42.5q-114 0 -184 75.5t-70 197.5q0 117 71 192.5t181 75.5q65 0 113.5 -24.5t75 -66t39 -88.5t13.5 -100zM124 306h314
q-6 69 -44.5 109t-105.5 40q-68 0 -111.5 -40.5t-52.5 -108.5z" />
    <glyph glyph-name="Gcircumflex" unicode="&#x11c;" horiz-adv-x="771" 
d="M234 754l113 127h100l113 -127h-100l-63 78l-63 -78h-100zM40 357q0 100 40.5 183.5t124 137t195.5 53.5q127 0 205 -64.5t104 -162.5h-95q-44 147 -214 147q-125 0 -195 -87t-70 -207t67.5 -207t187.5 -87q62 0 114 22t88 74.5t36 128.5l-223 -2v78h310l-9 -364h-60
l-12 137q-26 -73 -87 -113.5t-157 -40.5q-166 0 -258 109t-92 265z" />
    <glyph glyph-name="gcircumflex" unicode="&#x11d;" horiz-adv-x="605" 
d="M131 585l113 131h94l113 -131h-94l-66 84l-66 -84h-94zM451 517h90v-477q0 -111 -67 -174.5t-167 -63.5q-98 0 -164.5 47t-74.5 129h90q14 -100 149 -100q66 0 105 39.5t39 122.5v73h-1q-14 -49 -58.5 -82t-115.5 -33q-109 0 -174.5 74.5t-65.5 192.5q0 117 65 190.5
t175 73.5q71 0 115.5 -34t58.5 -83h1v105zM126 265q0 -82 42 -136t122 -54q88 0 126 53t38 132q0 81 -42.5 137t-121.5 56t-121.5 -54t-42.5 -134z" />
    <glyph glyph-name="Gbreve" unicode="&#x11e;" horiz-adv-x="771" 
d="M251 896h52q13 -35 34 -51t63 -16t63 16t34 51h52q-25 -122 -149 -122t-149 122zM40 357q0 100 40.5 183.5t124 137t195.5 53.5q127 0 205 -64.5t104 -162.5h-95q-44 147 -214 147q-125 0 -195 -87t-70 -207t67.5 -207t187.5 -87q62 0 114 22t88 74.5t36 128.5l-223 -2
v78h310l-9 -364h-60l-12 137q-26 -73 -87 -113.5t-157 -40.5q-166 0 -258 109t-92 265z" />
    <glyph glyph-name="gbreve" unicode="&#x11f;" horiz-adv-x="605" 
d="M182 731q24 -83 108 -83q40 0 63.5 20.5t39.5 62.5h51q-11 -65 -51.5 -101.5t-102.5 -36.5q-138 0 -158 138h50zM451 517h90v-477q0 -111 -67 -174.5t-167 -63.5q-98 0 -164.5 47t-74.5 129h90q14 -100 149 -100q66 0 105 39.5t39 122.5v73h-1q-14 -49 -58.5 -82
t-115.5 -33q-109 0 -174.5 74.5t-65.5 192.5q0 117 65 190.5t175 73.5q71 0 115.5 -34t58.5 -83h1v105zM126 265q0 -82 42 -136t122 -54q88 0 126 53t38 132q0 81 -42.5 137t-121.5 56t-121.5 -54t-42.5 -134z" />
    <glyph glyph-name="Gdotaccent" unicode="&#x120;" horiz-adv-x="771" 
d="M358 792v100h90v-100h-90zM40 357q0 100 40.5 183.5t124 137t195.5 53.5q127 0 205 -64.5t104 -162.5h-95q-44 147 -214 147q-125 0 -195 -87t-70 -207t67.5 -207t187.5 -87q62 0 114 22t88 74.5t36 128.5l-223 -2v78h310l-9 -364h-60l-12 137q-26 -73 -87 -113.5
t-157 -40.5q-166 0 -258 109t-92 265z" />
    <glyph glyph-name="gdotaccent" unicode="&#x121;" horiz-adv-x="605" 
d="M338 604h-90v104h90v-104zM451 519h90v-477q0 -111 -67 -174.5t-167 -63.5q-98 0 -164.5 47t-74.5 129h90q14 -100 149 -100q66 0 105 39.5t39 122.5v73h-1q-14 -49 -58.5 -82t-115.5 -33q-109 0 -174.5 74.5t-65.5 192.5q0 117 65 190.5t175 73.5q71 0 115.5 -34
t58.5 -83h1v105zM126 267q0 -82 42 -136t122 -54q88 0 126 53t38 132q0 81 -42.5 137t-121.5 56t-121.5 -54t-42.5 -134z" />
    <glyph glyph-name="uni0122" unicode="&#x122;" horiz-adv-x="771" 
d="M40 357q0 100 40.5 183.5t124 137t195.5 53.5q127 0 205 -64.5t104 -162.5h-95q-44 147 -214 147q-125 0 -195 -87t-70 -207t67.5 -207t187.5 -87q62 0 114 22t88 74.5t36 128.5l-223 -2v78h310l-9 -364h-60l-12 137q-26 -73 -87 -113.5t-157 -40.5q-166 0 -258 109
t-92 265zM344 -138v88h111v-77q0 -41 -26.5 -62t-72.5 -21v35q19 5 28.5 12.5t10.5 11.5t1 13h-52z" />
    <glyph glyph-name="uni0123" unicode="&#x123;" horiz-adv-x="605" 
d="M347 626h-111v77q0 41 26.5 62t72.5 21v-35q-19 -5 -28.5 -12.5t-10.5 -11.5t-1 -13h52v-88zM451 519h90v-477q0 -111 -67 -174.5t-167 -63.5q-98 0 -164.5 47t-74.5 129h90q14 -100 149 -100q66 0 105 39.5t39 122.5v73h-1q-14 -49 -58.5 -82t-115.5 -33
q-109 0 -174.5 74.5t-65.5 192.5q0 117 65 190.5t175 73.5q71 0 115.5 -34t58.5 -83h1v105zM126 267q0 -82 42 -136t122 -54q88 0 126 53t38 132q0 81 -42.5 137t-121.5 56t-121.5 -54t-42.5 -134z" />
    <glyph glyph-name="Hcircumflex" unicode="&#x124;" horiz-adv-x="686" 
d="M182 754l113 127h100l113 -127h-100l-63 78l-63 -78h-100zM76 0v714h95v-316h344v316h95v-714h-95v318h-344v-318h-95z" />
    <glyph glyph-name="hcircumflex" unicode="&#x125;" horiz-adv-x="560" 
d="M275 832l-63 -78h-100l113 127h100l113 -127h-100zM309 529q96 0 141.5 -54t45.5 -140v-335h-90v326q0 127 -109 127q-63 0 -103 -42.5t-40 -136.5v-274h-90v714h90v-302h1q11 48 52 82.5t102 34.5z" />
    <glyph glyph-name="Hbar" unicode="&#x126;" horiz-adv-x="686" 
d="M76 0v714h95v-198h344v198h95v-714h-95v318h-344v-318h-95zM171 398h344v64h-344v-64z" />
    <glyph glyph-name="hbar" unicode="&#x127;" horiz-adv-x="575" 
d="M307 531q96 0 141.5 -54t45.5 -140v-335h-90v326q0 127 -109 127q-63 0 -103 -42.5t-40 -136.5v-274h-90v581h-70v56h70v77h90v-77h149v-56h-149v-169h1q11 48 52 82.5t102 34.5z" />
    <glyph glyph-name="Itilde" unicode="&#x128;" horiz-adv-x="263" 
d="M-34 777q23 110 106 110q28 0 73.5 -20t65.5 -20q33 0 46 44h52q-7 -49 -33 -80t-68 -31q-28 0 -75 19.5t-66 19.5q-33 0 -49 -42h-52zM84 0v714h95v-714h-95z" />
    <glyph glyph-name="itilde" unicode="&#x129;" horiz-adv-x="222" 
d="M232 719h52q-6 -44 -32 -79q-23 -32 -69 -32q-31 0 -75 20q-41 19 -66 19q-32 0 -49 -42h-52q23 110 106 110q28 0 73.5 -20t65.5 -20q33 0 46 44zM66 0v517h90v-517h-90z" />
    <glyph glyph-name="Imacron" unicode="&#x12a;" horiz-adv-x="263" 
d="M-34 804v55h341v-55h-341zM84 0v714h95v-714h-95z" />
    <glyph glyph-name="imacron" unicode="&#x12b;" horiz-adv-x="222" 
d="M-58 684h341v-55h-341v55zM66 0v517h90v-517h-90z" />
    <glyph glyph-name="Iogonek" unicode="&#x12e;" horiz-adv-x="263" 
d="M23 -126q0 30 28.5 65.5t92.5 60.5h-60v714h95v-714h-7q-81 -66 -81 -116q0 -17 9.5 -29.5t28.5 -12.5q38 0 62 30l32 -18q-36 -62 -108 -62q-92 0 -92 82z" />
    <glyph glyph-name="iogonek" unicode="&#x12f;" horiz-adv-x="304" 
d="M217 714v-104h-92v104h92zM214 -130l28 -18q-32 -62 -97 -62q-83 0 -83 82q0 12 6.5 29t31.5 46.5t66 54.5h-43v517h90v-517h-14v-2q-44 -42 -59.5 -67.5t-15.5 -50.5q0 -17 8.5 -29.5t25.5 -12.5q35 0 56 30z" />
    <glyph glyph-name="Idotaccent" unicode="&#x130;" horiz-adv-x="263" 
d="M86 792v100h90v-100h-90zM84 0v714h95v-714h-95z" />
    <glyph glyph-name="dotlessi" unicode="&#x131;" horiz-adv-x="222" 
d="M66 0v517h90v-517h-90z" />
    <glyph glyph-name="ij" unicode="&#x133;" horiz-adv-x="457" 
d="M158 610h-96v100h96v-100zM389 610h-96v100h96v-100zM386 519v-585q0 -59 -30 -94t-95 -35h-61v76h38q34 0 47 10.5t13 44.5v583h88zM65 0v517h90v-517h-90z" />
    <glyph glyph-name="Jcircumflex" unicode="&#x134;" horiz-adv-x="496" 
d="M211 754l113 127h100l113 -127h-100l-63 78l-63 -78h-100zM28 177h95q3 -114 106 -114q106 0 106 121v530h95v-519q0 -103 -50.5 -157.5t-149.5 -54.5q-95 0 -146 50t-56 144z" />
    <glyph glyph-name="jcircumflex" unicode="&#x135;" horiz-adv-x="244" 
d="M-30 585l113 131h94l113 -131h-94l-66 84l-66 -84h-94zM176 517v-585q0 -59 -30 -94t-95 -35h-61v76h38q34 0 47 10.5t13 44.5v583h88z" />
    <glyph glyph-name="uni0136" unicode="&#x136;" horiz-adv-x="634" 
d="M76 0v714h95v-360l330 360h121l-283 -298l291 -416h-114l-239 350l-106 -112v-238h-95zM278 -138v88h111v-77q0 -41 -26.5 -62t-72.5 -21v35q19 5 28.5 12.5t10.5 11.5t1 13h-52z" />
    <glyph glyph-name="uni0137" unicode="&#x137;" horiz-adv-x="522" 
d="M269 301l236 -299h-115l-183 236l-55 -55v-181h-90v714h90v-423l224 226h109zM213 -138v88h111v-77q0 -41 -26.5 -62t-72.5 -21v35q19 5 28.5 12.5t10.5 11.5t1 13h-52z" />
    <glyph glyph-name="Lacute" unicode="&#x139;" 
d="M64 772l126 113h134l-160 -113h-100zM76 0v714h95v-634h347v-80h-442z" />
    <glyph glyph-name="lacute" unicode="&#x13a;" horiz-adv-x="226" 
d="M138 885h134l-160 -113h-100zM68 714h90v-714h-90v714z" />
    <glyph glyph-name="uni013B" unicode="&#x13b;" horiz-adv-x="542" 
d="M76 2v714h95v-634h347v-80h-442zM247 -138v88h111v-77q0 -41 -26.5 -62t-72.5 -21v35q19 5 28.5 12.5t10.5 11.5t1 13h-52z" />
    <glyph glyph-name="uni013C" unicode="&#x13c;" horiz-adv-x="222" 
d="M66 716h90v-714h-90v714zM56 -50h111v-77q0 -41 -26.5 -62t-72.5 -21v35q19 5 28.5 12.5t10.5 11.5t1 13h-52v88z" />
    <glyph glyph-name="Lcaron" unicode="&#x13d;" horiz-adv-x="542" 
d="M76 0v714h95v-634h347v-80h-442zM284 571l26 143h109l-75 -143h-60z" />
    <glyph glyph-name="lcaron" unicode="&#x13e;" horiz-adv-x="222" 
d="M66 716h90v-714h-90v714zM223 714h109l-75 -143h-60z" />
    <glyph glyph-name="Ldot" unicode="&#x13f;" horiz-adv-x="542" 
d="M76 0v714h95v-634h347v-80h-442zM314 448v100h90v-100h-90z" />
    <glyph glyph-name="ldot" unicode="&#x140;" horiz-adv-x="222" 
d="M66 716h90v-714h-90v714zM301 413h-90v104h90v-104z" />
    <glyph glyph-name="Lslash" unicode="&#x141;" horiz-adv-x="564" 
d="M2 184v76l72 51v405h95v-338l235 166v-76l-235 -166v-220h347v-80h-442v233z" />
    <glyph glyph-name="lslash" unicode="&#x142;" horiz-adv-x="222" 
d="M225 445l-69 -55v-388h-90v317l-66 -53v71l66 53v326h90v-254l68 55z" />
    <glyph glyph-name="Nacute" unicode="&#x143;" horiz-adv-x="719" 
d="M295 772l126 113h134l-160 -113h-100zM76 0v714h114l276 -451l82 -130v146v435h95v-714h-117l-275 448q-14 21 -40 63.5t-40 63.5v-140v-435h-95z" />
    <glyph glyph-name="nacute" unicode="&#x144;" 
d="M464 714l-137 -139h-66l89 139h114zM309 529q96 0 141.5 -54t45.5 -140v-335h-90v326q0 127 -109 127q-63 0 -103 -42.5t-40 -136.5v-274h-90v517h90v-105h1q11 48 52 82.5t102 34.5z" />
    <glyph glyph-name="uni0145" unicode="&#x145;" horiz-adv-x="719" 
d="M76 0v714h114l276 -451l82 -130v146v435h95v-714h-117l-275 448q-14 21 -40 63.5t-40 63.5v-140v-435h-95zM316 -138v88h111v-77q0 -41 -26.5 -62t-72.5 -21v35q19 5 28.5 12.5t10.5 11.5t1 13h-52z" />
    <glyph glyph-name="uni0146" unicode="&#x146;" 
d="M309 531q96 0 141.5 -54t45.5 -140v-335h-90v326q0 127 -109 127q-63 0 -103 -42.5t-40 -136.5v-274h-90v517h90v-105h1q11 48 52 82.5t102 34.5zM235 -138v88h111v-77q0 -41 -26.5 -62t-72.5 -21v35q19 5 28.5 12.5t10.5 11.5t1 13h-52z" />
    <glyph glyph-name="Ncaron" unicode="&#x147;" horiz-adv-x="719" 
d="M190 885h89l81 -89l78 89h92l-124 -135h-93zM76 0v714h114l276 -451l82 -130v146v435h95v-714h-117l-275 448q-14 21 -40 63.5t-40 63.5v-140v-435h-95z" />
    <glyph glyph-name="ncaron" unicode="&#x148;" horiz-adv-x="560" 
d="M344 581h-93l-123 135h89l81 -89l78 89h92zM309 529q96 0 141.5 -54t45.5 -140v-335h-90v326q0 127 -109 127q-63 0 -103 -42.5t-40 -136.5v-274h-90v517h90v-105h1q11 48 52 82.5t102 34.5z" />
    <glyph glyph-name="napostrophe" unicode="&#x149;" horiz-adv-x="556" 
d="M30 677q19 5 28.5 12.5t10.5 11.5t1 13h-52v88h111v-77q0 -41 -26.5 -62t-72.5 -21v35zM311 531q96 0 141.5 -54t45.5 -140v-335h-90v326q0 127 -109 127q-63 0 -103 -42.5t-40 -136.5v-274h-90v517h90v-105h1q11 48 52 82.5t102 34.5z" />
    <glyph glyph-name="Omacron" unicode="&#x14c;" horiz-adv-x="820" 
d="M248 804v55h341v-55h-341zM40 357q0 157 101 265.5t269 108.5t269 -108.5t101 -265.5t-101 -265.5t-269 -108.5t-269 108.5t-101 265.5zM135 357q0 -120 74 -207t201 -87t201 87t74 207t-74 207t-201 87t-201 -87t-74 -207z" />
    <glyph glyph-name="omacron" unicode="&#x14d;" horiz-adv-x="590" 
d="M131 682h341v-55h-341v55zM295 -12q-116 0 -187.5 77t-71.5 193t71.5 193.5t187.5 77.5t187.5 -77.5t71.5 -193.5t-71.5 -193t-187.5 -77zM295 64q74 0 121.5 56.5t47.5 137.5q0 82 -47.5 138.5t-121.5 56.5t-121.5 -56.5t-47.5 -138.5q0 -81 47.5 -137.5t121.5 -56.5z
" />
    <glyph glyph-name="Obreve" unicode="&#x14e;" horiz-adv-x="820" 
d="M269 896h52q13 -35 34 -51t63 -16t63 16t34 51h52q-25 -122 -149 -122t-149 122zM40 357q0 157 101 265.5t269 108.5t269 -108.5t101 -265.5t-101 -265.5t-269 -108.5t-269 108.5t-101 265.5zM135 357q0 -120 74 -207t201 -87t201 87t74 207t-74 207t-201 87t-201 -87
t-74 -207z" />
    <glyph glyph-name="obreve" unicode="&#x14f;" horiz-adv-x="590" 
d="M191 729q24 -83 108 -83q40 0 63.5 20.5t39.5 62.5h51q-11 -65 -51.5 -101.5t-102.5 -36.5q-138 0 -158 138h50zM295 -12q-116 0 -187.5 77t-71.5 193t71.5 193.5t187.5 77.5t187.5 -77.5t71.5 -193.5t-71.5 -193t-187.5 -77zM295 64q74 0 121.5 56.5t47.5 137.5
q0 82 -47.5 138.5t-121.5 56.5t-121.5 -56.5t-47.5 -138.5q0 -81 47.5 -137.5t121.5 -56.5z" />
    <glyph glyph-name="Ohungarumlaut" unicode="&#x150;" horiz-adv-x="820" 
d="M277 772l91 113h111l-126 -113h-76zM433 772l91 113h111l-126 -113h-76zM40 357q0 157 101 265.5t269 108.5t269 -108.5t101 -265.5t-101 -265.5t-269 -108.5t-269 108.5t-101 265.5zM135 357q0 -120 74 -207t201 -87t201 87t74 207t-74 207t-201 87t-201 -87t-74 -207z
" />
    <glyph glyph-name="ohungarumlaut" unicode="&#x151;" horiz-adv-x="590" 
d="M258 732h105l-120 -143h-66zM414 732h105l-120 -143h-66zM295 -10q-116 0 -187.5 77t-71.5 193t71.5 193.5t187.5 77.5t187.5 -77.5t71.5 -193.5t-71.5 -193t-187.5 -77zM295 66q74 0 121.5 56.5t47.5 137.5q0 82 -47.5 138.5t-121.5 56.5t-121.5 -56.5t-47.5 -138.5
q0 -81 47.5 -137.5t121.5 -56.5z" />
    <glyph glyph-name="OE" unicode="&#x152;" horiz-adv-x="1127" 
d="M40 357q0 157 95 265.5t255 108.5q164 0 249 -114v97h433v-80h-338v-231h317v-80h-317v-243h341v-80h-436v98q-85 -115 -249 -115q-160 0 -255 108.5t-95 265.5zM135 357q0 -77 28 -142.5t87 -108.5t140 -43t140 43t87 108.5t28 142.5t-28 142.5t-87 108.5t-140 43
t-140 -43t-87 -108.5t-28 -142.5z" />
    <glyph glyph-name="oe" unicode="&#x153;" horiz-adv-x="973" 
d="M937 250v-16h-400q5 -80 49 -125.5t114 -45.5q117 0 143 91h88q-21 -81 -81 -123.5t-148 -42.5q-145 0 -204 120q-61 -120 -205 -120q-116 0 -186.5 77t-70.5 193t70.5 193.5t186.5 77.5q144 0 205 -121q29 57 81 89t121 32q65 0 113 -24.5t74 -66t38 -88.5t12 -100z
M538 306h310q-13 149 -148 149q-68 0 -110.5 -40.5t-51.5 -108.5zM293 64q74 0 120.5 56t46.5 138t-46.5 138.5t-120.5 56.5t-120.5 -56.5t-46.5 -138.5t46.5 -138t120.5 -56z" />
    <glyph glyph-name="Racute" unicode="&#x154;" horiz-adv-x="649" 
d="M238 772l126 113h134l-160 -113h-100zM76 0v714h262q117 0 179.5 -57t62.5 -146q0 -64 -40 -117t-107 -69q42 -12 67.5 -50.5t47.5 -111.5q13 -41 19.5 -60.5t19 -45t30.5 -47.5v-10h-108q-15 22 -25.5 50.5t-20.5 65t-17 55.5q-22 60 -51.5 90.5t-88.5 30.5h-135v-292
h-95zM171 372h163q74 0 112 37t38 102q0 123 -156 123h-157v-262z" />
    <glyph glyph-name="racute" unicode="&#x155;" horiz-adv-x="334" 
d="M160 716h114l-137 -139h-66zM308 434q-71 -5 -112.5 -53.5t-41.5 -135.5v-245h-90v517h90l1 -125h1q17 62 57.5 95t94.5 37v-90z" />
    <glyph glyph-name="uni0156" unicode="&#x156;" horiz-adv-x="649" 
d="M76 0v714h262q117 0 179.5 -57t62.5 -146q0 -64 -40 -117t-107 -69q42 -12 67.5 -50.5t47.5 -111.5q13 -41 19.5 -60.5t19 -45t30.5 -47.5v-10h-108q-15 22 -25.5 50.5t-20.5 65t-17 55.5q-22 60 -51.5 90.5t-88.5 30.5h-135v-292h-95zM171 372h163q74 0 112 37t38 102
q0 123 -156 123h-157v-262zM293 -138v88h111v-77q0 -41 -26.5 -62t-72.5 -21v35q19 5 28.5 12.5t10.5 11.5t1 13h-52z" />
    <glyph glyph-name="uni0157" unicode="&#x157;" horiz-adv-x="334" 
d="M308 434q-71 -5 -112.5 -53.5t-41.5 -135.5v-245h-90v517h90l1 -125h1q17 62 57.5 95t94.5 37v-90zM60 -50h111v-77q0 -41 -26.5 -62t-72.5 -21v35q19 5 28.5 12.5t10.5 11.5t1 13h-52v88z" />
    <glyph glyph-name="Rcaron" unicode="&#x158;" horiz-adv-x="649" 
d="M150 885h89l81 -89l78 89h92l-124 -135h-93zM76 0v714h262q117 0 179.5 -57t62.5 -146q0 -64 -40 -117t-107 -69q42 -12 67.5 -50.5t47.5 -111.5q13 -41 19.5 -60.5t19 -45t30.5 -47.5v-10h-108q-15 22 -25.5 50.5t-20.5 65t-17 55.5q-22 60 -51.5 90.5t-88.5 30.5h-135
v-292h-95zM171 372h163q74 0 112 37t38 102q0 123 -156 123h-157v-262z" />
    <glyph glyph-name="rcaron" unicode="&#x159;" horiz-adv-x="334" 
d="M254 581h-93l-123 135h89l81 -89l78 89h92zM156 392q17 62 57.5 95t94.5 37v-90q-71 -5 -112.5 -53.5t-41.5 -135.5v-245h-90v517h90l1 -125h1z" />
    <glyph glyph-name="Sacute" unicode="&#x15a;" horiz-adv-x="634" 
d="M239 772l126 113h134l-160 -113h-100zM44 226h95q1 -80 51 -121.5t132 -41.5q69 0 121 33.5t52 94.5q0 13 -3 24.5t-6.5 20.5t-12.5 17.5t-15 14t-19.5 12t-21 9.5t-24.5 8.5t-24.5 7.5t-27.5 7.5t-27 7.5q-47 13 -72 20.5t-64 25t-59 36.5t-36 50t-17 70
q-2 98 70.5 153.5t176.5 55.5q111 0 177.5 -57t72.5 -165h-95q-8 72 -45.5 107t-109.5 35q-65 0 -108.5 -30.5t-43.5 -91.5q0 -50 43.5 -77.5t127.5 -49.5q7 -2 36 -9.5t37.5 -10t34.5 -10.5t35.5 -13t30 -15.5t29 -19.5t22 -23.5t19 -29.5t10 -35t4.5 -42q0 -69 -41 -118.5
t-100 -71t-127 -21.5q-125 0 -201.5 61.5t-76.5 181.5z" />
    <glyph glyph-name="sacute" unicode="&#x15b;" horiz-adv-x="479" 
d="M274 716h114l-137 -139h-66zM349 361q-4 47 -37 69.5t-77 22.5q-39 0 -68.5 -20t-29.5 -52q0 -26 25 -45t46 -25.5t70 -17.5l12 -3q157 -35 157 -142q0 -76 -64 -118t-141 -42q-48 0 -91.5 14.5t-79 54t-39.5 99.5h90q9 -48 39 -70t84 -22q45 0 78.5 19t33.5 60
q0 12 -3.5 21.5t-13 17t-17 12.5t-23.5 10t-25 7t-30 6.5t-29 6.5q-169 39 -169 153q0 69 58.5 110.5t132.5 41.5q80 0 136.5 -43t63.5 -125h-89z" />
    <glyph glyph-name="Scircumflex" unicode="&#x15c;" horiz-adv-x="634" 
d="M160 754l113 127h100l113 -127h-100l-63 78l-63 -78h-100zM44 226h95q1 -80 51 -121.5t132 -41.5q69 0 121 33.5t52 94.5q0 13 -3 24.5t-6.5 20.5t-12.5 17.5t-15 14t-19.5 12t-21 9.5t-24.5 8.5t-24.5 7.5t-27.5 7.5t-27 7.5q-47 13 -72 20.5t-64 25t-59 36.5t-36 50
t-17 70q-2 98 70.5 153.5t176.5 55.5q111 0 177.5 -57t72.5 -165h-95q-8 72 -45.5 107t-109.5 35q-65 0 -108.5 -30.5t-43.5 -91.5q0 -50 43.5 -77.5t127.5 -49.5q7 -2 36 -9.5t37.5 -10t34.5 -10.5t35.5 -13t30 -15.5t29 -19.5t22 -23.5t19 -29.5t10 -35t4.5 -42
q0 -69 -41 -118.5t-100 -71t-127 -21.5q-125 0 -201.5 61.5t-76.5 181.5z" />
    <glyph glyph-name="scircumflex" unicode="&#x15d;" horiz-adv-x="479" 
d="M81 585l113 131h94l113 -131h-94l-66 84l-66 -84h-94zM349 361q-4 47 -37 69.5t-77 22.5q-39 0 -68.5 -20t-29.5 -52q0 -26 25 -45t46 -25.5t70 -17.5l12 -3q157 -35 157 -142q0 -76 -64 -118t-141 -42q-48 0 -91.5 14.5t-79 54t-39.5 99.5h90q9 -48 39 -70t84 -22
q45 0 78.5 19t33.5 60q0 12 -3.5 21.5t-13 17t-17 12.5t-23.5 10t-25 7t-30 6.5t-29 6.5q-169 39 -169 153q0 69 58.5 110.5t132.5 41.5q80 0 136.5 -43t63.5 -125h-89z" />
    <glyph glyph-name="Scedilla" unicode="&#x15e;" horiz-adv-x="634" 
d="M44 226h95q1 -80 51 -121.5t132 -41.5q69 0 121 33.5t52 94.5q0 13 -3 24.5t-6.5 20.5t-12.5 17.5t-15 14t-19.5 12t-21 9.5t-24.5 8.5t-24.5 7.5t-27.5 7.5t-27 7.5q-47 13 -72 20.5t-64 25t-59 36.5t-36 50t-17 70q-2 98 70.5 153.5t176.5 55.5q111 0 177.5 -57
t72.5 -165h-95q-8 72 -45.5 107t-109.5 35q-65 0 -108.5 -30.5t-43.5 -91.5q0 -50 43.5 -77.5t127.5 -49.5q7 -2 36 -9.5t37.5 -10t34.5 -10.5t35.5 -13t30 -15.5t29 -19.5t22 -23.5t19 -29.5t10 -35t4.5 -42q0 -96 -72 -150t-172 -60l-28 -35l2 -2q10 7 33 7q35 0 59.5 -19
t24.5 -54q0 -46 -37.5 -67.5t-86.5 -21.5q-50 0 -93 20l19 51q29 -19 67 -19q56 0 56 31q0 29 -47 29q-17 0 -41 -8l-27 39l44 49q-112 8 -179.5 69t-67.5 173z" />
    <glyph glyph-name="scedilla" unicode="&#x15f;" horiz-adv-x="479" 
d="M447 148q0 -67 -50 -107.5t-119 -49.5l-33 -42l2 -2q10 7 33 7q35 0 59.5 -19t24.5 -54q0 -46 -37.5 -67.5t-86.5 -21.5q-50 0 -93 20l19 49q29 -19 61 -19q24 0 43 7.5t19 23.5q0 14 -13 22.5t-34 8.5q-17 0 -41 -8l-27 39l48 54q-46 3 -85 19t-70 54t-35 94h90
q9 -48 39 -70t84 -22q45 0 78.5 19t33.5 60q0 12 -3.5 21.5t-13 17t-17 12.5t-23.5 10t-25 7t-30 6.5t-29 6.5q-169 39 -169 153q0 69 58.5 110.5t132.5 41.5q80 0 136.5 -43t63.5 -125h-89q-4 47 -37 69.5t-77 22.5q-39 0 -68.5 -20t-29.5 -52q0 -26 25 -45t46 -25.5
t70 -17.5l12 -3q157 -35 157 -142z" />
    <glyph glyph-name="Scaron" unicode="&#x160;" horiz-adv-x="634" 
d="M145 885h89l81 -89l78 89h92l-124 -135h-93zM44 226h95q1 -80 51 -121.5t132 -41.5q69 0 121 33.5t52 94.5q0 13 -3 24.5t-6.5 20.5t-12.5 17.5t-15 14t-19.5 12t-21 9.5t-24.5 8.5t-24.5 7.5t-27.5 7.5t-27 7.5q-47 13 -72 20.5t-64 25t-59 36.5t-36 50t-17 70
q-2 98 70.5 153.5t176.5 55.5q111 0 177.5 -57t72.5 -165h-95q-8 72 -45.5 107t-109.5 35q-65 0 -108.5 -30.5t-43.5 -91.5q0 -50 43.5 -77.5t127.5 -49.5q7 -2 36 -9.5t37.5 -10t34.5 -10.5t35.5 -13t30 -15.5t29 -19.5t22 -23.5t19 -29.5t10 -35t4.5 -42q0 -69 -41 -118.5
t-100 -71t-127 -21.5q-125 0 -201.5 61.5t-76.5 181.5z" />
    <glyph glyph-name="scaron" unicode="&#x161;" horiz-adv-x="479" 
d="M292 581h-93l-123 135h89l81 -89l78 89h92zM290 290q157 -35 157 -142q0 -76 -64 -118t-141 -42q-48 0 -91.5 14.5t-79 54t-39.5 99.5h90q9 -48 39 -70t84 -22q45 0 78.5 19t33.5 60q0 12 -3.5 21.5t-13 17t-17 12.5t-23.5 10t-25 7t-30 6.5t-29 6.5q-169 39 -169 153
q0 69 58.5 110.5t132.5 41.5q80 0 136.5 -43t63.5 -125h-89q-4 47 -37 69.5t-77 22.5q-39 0 -68.5 -20t-29.5 -52q0 -26 25 -45t46 -25.5t70 -17.5z" />
    <glyph glyph-name="Tcaron" unicode="&#x164;" horiz-adv-x="581" 
d="M117 885h89l81 -89l78 89h92l-124 -135h-93zM24 634v80h533v-80h-219v-634h-95v634h-219z" />
    <glyph glyph-name="tcaron" unicode="&#x165;" horiz-adv-x="310" 
d="M315 714h109l-75 -143h-60zM181 684v-167h99v-74h-99v-298q0 -32 14.5 -52.5t41.5 -20.5h32v-72h-41q-65 0 -100 40.5t-35 98.5v304h-77v74h77v127l85 40h3z" />
    <glyph glyph-name="Tbar" unicode="&#x166;" horiz-adv-x="581" 
d="M24 634v80h533v-80h-219v-148h150v-55h-150v-431h-95v431h-150v55h150v148h-219z" />
    <glyph glyph-name="tbar" unicode="&#x167;" horiz-adv-x="316" 
d="M286 291h-105v-146q0 -32 14.5 -52.5t41.5 -20.5h32v-72h-41q-65 0 -100 40.5t-35 98.5v152h-107v53h107v99h-77v74h77v127l85 40h3v-167h99v-74h-99v-99h105v-53z" />
    <glyph glyph-name="Utilde" unicode="&#x168;" horiz-adv-x="670" 
d="M164 777q23 110 106 110q28 0 73.5 -20t65.5 -20q33 0 46 44h52q-7 -49 -33 -80t-68 -31q-28 0 -75 19.5t-66 19.5q-33 0 -49 -42h-52zM66 254v460h95v-460q0 -83 44 -137t130 -54t130 54t44 137v460h95v-460q0 -119 -68.5 -195t-200.5 -76t-200.5 76t-68.5 195z" />
    <glyph glyph-name="utilde" unicode="&#x169;" 
d="M214 647q-32 0 -49 -42h-52q23 110 106 110q28 0 73.5 -20t65.5 -20q33 0 46 44h52q-6 -44 -32 -79q-23 -32 -69 -32q-31 0 -75 20q-41 19 -66 19zM400 517h90v-517h-90v105h-1q-11 -48 -52 -82.5t-102 -34.5q-96 0 -141.5 54t-45.5 140v335h90v-326q0 -127 109 -127
q63 0 103 42.5t40 136.5v274z" />
    <glyph glyph-name="Umacron" unicode="&#x16a;" horiz-adv-x="670" 
d="M165 804v55h341v-55h-341zM66 254v460h95v-460q0 -83 44 -137t130 -54t130 54t44 137v460h95v-460q0 -119 -68.5 -195t-200.5 -76t-200.5 76t-68.5 195z" />
    <glyph glyph-name="umacron" unicode="&#x16b;" 
d="M442 682v-55h-341v55h341zM400 517h90v-517h-90v105h-1q-11 -48 -52 -82.5t-102 -34.5q-96 0 -141.5 54t-45.5 140v335h90v-326q0 -127 109 -127q63 0 103 42.5t40 136.5v274z" />
    <glyph glyph-name="Ubreve" unicode="&#x16c;" horiz-adv-x="670" 
d="M186 896h52q13 -35 34 -51t63 -16t63 16t34 51h52q-25 -122 -149 -122t-149 122zM66 254v460h95v-460q0 -83 44 -137t130 -54t130 54t44 137v460h95v-460q0 -119 -68.5 -195t-200.5 -76t-200.5 76t-68.5 195z" />
    <glyph glyph-name="ubreve" unicode="&#x16d;" 
d="M281 591q-138 0 -158 138h50q24 -83 108 -83q40 0 63.5 20.5t39.5 62.5h51q-11 -65 -51.5 -101.5t-102.5 -36.5zM400 517h90v-517h-90v105h-1q-11 -48 -52 -82.5t-102 -34.5q-96 0 -141.5 54t-45.5 140v335h90v-326q0 -127 109 -127q63 0 103 42.5t40 136.5v274z" />
    <glyph glyph-name="Uring" unicode="&#x16e;" horiz-adv-x="670" 
d="M227 877q0 45 32 76.5t76 31.5t76 -31.5t32 -76.5t-32 -76.5t-76 -31.5t-76 31.5t-32 76.5zM274 876q0 -27 17 -44.5t44 -17.5t44 17.5t17 44.5t-17 44.5t-44 17.5t-44 -17.5t-17 -44.5zM66 254v460h95v-460q0 -83 44 -137t130 -54t130 54t44 137v460h95v-460
q0 -119 -68.5 -195t-200.5 -76t-200.5 76t-68.5 195z" />
    <glyph glyph-name="uring" unicode="&#x16f;" 
d="M277 569q-46 0 -79.5 33t-33.5 79t33.5 79t79.5 33t79.5 -33t33.5 -79t-33.5 -79t-79.5 -33zM277 748q-29 0 -48 -19.5t-19 -48.5t19 -48.5t48 -19.5t48 19.5t19 48.5t-19 48.5t-48 19.5zM400 517h90v-517h-90v105h-1q-11 -48 -52 -82.5t-102 -34.5q-96 0 -141.5 54
t-45.5 140v335h90v-326q0 -127 109 -127q63 0 103 42.5t40 136.5v274z" />
    <glyph glyph-name="Uhungarumlaut" unicode="&#x170;" horiz-adv-x="670" 
d="M206 772l91 113h111l-126 -113h-76zM362 772l91 113h111l-126 -113h-76zM66 254v460h95v-460q0 -83 44 -137t130 -54t130 54t44 137v460h95v-460q0 -119 -68.5 -195t-200.5 -76t-200.5 76t-68.5 195z" />
    <glyph glyph-name="uhungarumlaut" unicode="&#x171;" horiz-adv-x="559" 
d="M339 732l-120 -143h-66l81 143h105zM375 589h-66l81 143h105zM400 243v274h90v-517h-90v105h-1q-11 -48 -52 -82.5t-102 -34.5q-96 0 -141.5 54t-45.5 140v335h90v-326q0 -127 109 -127q63 0 103 42.5t40 136.5z" />
    <glyph glyph-name="Uogonek" unicode="&#x172;" horiz-adv-x="670" 
d="M66 254v460h95v-460q0 -83 44 -137t130 -54t130 54t44 137v460h95v-460q0 -110 -58 -183.5t-171 -85.5q-63 -58 -63 -101q0 -17 9.5 -29.5t28.5 -12.5q38 0 62 30l32 -18q-36 -62 -108 -62q-92 0 -92 82q0 24 19.5 54.5t64.5 54.5q-128 2 -195 78t-67 193z" />
    <glyph glyph-name="uogonek" unicode="&#x173;" horiz-adv-x="582" 
d="M486 -130l32 -18q-36 -62 -108 -62q-92 0 -92 82q0 11 6 27t30.5 43.5t64.5 51.5l15 8h-34v105h-1q-11 -48 -52 -82.5t-102 -34.5q-96 0 -141.5 54t-45.5 140v335h90v-326q0 -127 109 -127q63 0 103 42.5t40 136.5v274h90v-517h-17l-8 -6q-79 -67 -79 -114
q0 -17 9.5 -29.5t28.5 -12.5q38 0 62 30z" />
    <glyph glyph-name="Wcircumflex" unicode="&#x174;" horiz-adv-x="918" 
d="M296 754l113 127h100l113 -127h-100l-63 78l-63 -78h-100zM10 714h100l125 -534l18 -79h1l18 79l121 534h130l117 -534l18 -80h1l19 80l130 534h100l-140 -534l-47 -180h-128l-134 619h-1l-101 -439l-41 -180h-127l-45 180z" />
    <glyph glyph-name="wcircumflex" unicode="&#x175;" horiz-adv-x="777" 
d="M231 585l113 131h94l113 -131h-94l-66 84l-66 -84h-94zM170 0l-148 517h94l83 -324q4 -16 11 -48t11 -48h1q4 15 11 47.5t11 47.5l85 325h118l84 -324l24 -97h1l23 97l82 324h94l-149 -517h-103l-92 345l-23 88h-1q-4 -15 -11 -44t-11 -44l-92 -345h-103z" />
    <glyph glyph-name="Ycircumflex" unicode="&#x176;" horiz-adv-x="624" 
d="M149 754l113 127h100l113 -127h-100l-63 78l-63 -78h-100zM16 714h110l186 -333h2l184 333h110l-249 -420v-294h-95v294z" />
    <glyph glyph-name="ycircumflex" unicode="&#x177;" horiz-adv-x="548" 
d="M118 585l113 131h94l113 -131h-94l-66 84l-66 -84h-94zM22 517h96l164 -428h1l147 428h96l-234 -617q-37 -100 -131 -100h-70v76h57q15 0 26 4t16.5 7t13 16t8.5 16t9 22l18 45q-36 89 -108.5 266t-108.5 265z" />
    <glyph glyph-name="Ydieresis" unicode="&#x178;" horiz-adv-x="624" 
d="M173 782v104h90v-104h-90zM361 782v104h90v-104h-90zM16 714h110l186 -333h2l184 333h110l-249 -420v-294h-95v294z" />
    <glyph glyph-name="Zacute" unicode="&#x179;" horiz-adv-x="618" 
d="M244 772l126 113h134l-160 -113h-100zM54 0v86l397 544h-375v84h486v-86l-395 -544h407v-84h-520z" />
    <glyph glyph-name="zacute" unicode="&#x17a;" horiz-adv-x="496" 
d="M281 716h114l-137 -139h-66zM42 61l300 380h-62h-216v76h390v-54l-305 -387h57h256v-76h-420v61z" />
    <glyph glyph-name="Zdotaccent" unicode="&#x17b;" horiz-adv-x="618" 
d="M277 792v100h90v-100h-90zM54 0v86l397 544h-375v84h486v-86l-395 -544h407v-84h-520z" />
    <glyph glyph-name="zdotaccent" unicode="&#x17c;" horiz-adv-x="496" 
d="M309 604h-90v104h90v-104zM42 61l300 380h-62h-216v76h390v-54l-305 -387h57h256v-76h-420v61z" />
    <glyph glyph-name="Zcaron" unicode="&#x17d;" horiz-adv-x="618" 
d="M169 885h89l81 -89l78 89h92l-124 -135h-93zM54 0v86l397 544h-375v84h486v-86l-395 -544h407v-84h-520z" />
    <glyph glyph-name="zcaron" unicode="&#x17e;" horiz-adv-x="496" 
d="M312 581h-93l-123 135h89l81 -89l78 89h92zM206 76h256v-76h-420v61l300 380h-62h-216v76h390v-54l-305 -387h57z" />
    <glyph glyph-name="uni0218" unicode="&#x218;" horiz-adv-x="634" 
d="M44 228h95q1 -80 51 -121.5t132 -41.5q69 0 121 33.5t52 94.5q0 13 -3 24.5t-6.5 20.5t-12.5 17.5t-15 14t-19.5 12t-21 9.5t-24.5 8.5t-24.5 7.5t-27.5 7.5t-27 7.5q-47 13 -72 20.5t-64 25t-59 36.5t-36 50t-17 70q-2 98 70.5 153.5t176.5 55.5q111 0 177.5 -57
t72.5 -165h-95q-8 72 -45.5 107t-109.5 35q-65 0 -108.5 -30.5t-43.5 -91.5q0 -50 43.5 -77.5t127.5 -49.5q7 -2 36 -9.5t37.5 -10t34.5 -10.5t35.5 -13t30 -15.5t29 -19.5t22 -23.5t19 -29.5t10 -35t4.5 -42q0 -69 -41 -118.5t-100 -71t-127 -21.5q-125 0 -201.5 61.5
t-76.5 181.5zM282 -138v88h111v-77q0 -41 -26.5 -62t-72.5 -21v35q19 5 28.5 12.5t10.5 11.5t1 13h-52z" />
    <glyph glyph-name="uni0219" unicode="&#x219;" horiz-adv-x="479" 
d="M349 361q-4 47 -37 69.5t-77 22.5q-39 0 -68.5 -20t-29.5 -52q0 -26 25 -45t46 -25.5t70 -17.5l12 -3q157 -35 157 -142q0 -76 -64 -118t-141 -42q-48 0 -91.5 14.5t-79 54t-39.5 99.5h90q9 -48 39 -70t84 -22q45 0 78.5 19t33.5 60q0 12 -3.5 21.5t-13 17t-17 12.5
t-23.5 10t-25 7t-30 6.5t-29 6.5q-169 39 -169 153q0 69 58.5 110.5t132.5 41.5q80 0 136.5 -43t63.5 -125h-89zM191 -50h111v-77q0 -41 -26.5 -62t-72.5 -21v35q19 5 28.5 12.5t10.5 11.5t1 13h-52v88z" />
    <glyph glyph-name="uni021A" unicode="&#x21a;" horiz-adv-x="581" 
d="M24 634v80h533v-80h-219v-634h-95v634h-219zM234 -138v88h111v-77q0 -41 -26.5 -62t-72.5 -21v35q19 5 28.5 12.5t10.5 11.5t1 13h-52z" />
    <glyph glyph-name="uni021B" unicode="&#x21b;" horiz-adv-x="310" 
d="M280 443h-99v-298q0 -32 14.5 -52.5t41.5 -20.5h32v-72h-41q-65 0 -100 40.5t-35 98.5v304h-77v74h77v127l85 40h3v-167h99v-74zM139 -138v88h111v-77q0 -41 -26.5 -62t-72.5 -21v35q19 5 28.5 12.5t10.5 11.5t1 13h-52z" />
    <glyph glyph-name="circumflex" unicode="&#x2c6;" horiz-adv-x="400" 
d="M40 583l113 131h94l113 -131h-94l-66 84l-66 -84h-94z" />
    <glyph glyph-name="caron" unicode="&#x2c7;" horiz-adv-x="400" 
d="M278 714h92l-124 -135h-93l-123 135h89l81 -89z" />
    <glyph glyph-name="uni02C9" unicode="&#x2c9;" horiz-adv-x="401" 
d="M30 682h341v-55h-341v55z" />
    <glyph glyph-name="breve" unicode="&#x2d8;" horiz-adv-x="372" 
d="M80 729q24 -83 108 -83q40 0 63.5 20.5t39.5 62.5h51q-11 -65 -51.5 -101.5t-102.5 -36.5q-138 0 -158 138h50z" />
    <glyph glyph-name="dotaccent" unicode="&#x2d9;" horiz-adv-x="150" 
d="M120 604h-90v104h90v-104z" />
    <glyph glyph-name="ring" unicode="&#x2da;" horiz-adv-x="286" 
d="M143 793q46 0 79.5 -33t33.5 -79t-33.5 -79t-79.5 -33t-79.5 33t-33.5 79t33.5 79t79.5 33zM143 612q29 0 48 19.5t19 48.5t-19 48.5t-48 19.5t-48 -19.5t-19 -48.5t19 -48.5t48 -19.5z" />
    <glyph glyph-name="ogonek" unicode="&#x2db;" horiz-adv-x="260" 
d="M185 3q-87 -70 -87 -121q0 -17 9.5 -29.5t28.5 -12.5q38 0 62 30l32 -18q-36 -62 -108 -62q-92 0 -92 82q0 31 31.5 68.5t103.5 62.5h20z" />
    <glyph glyph-name="tilde" unicode="&#x2dc;" horiz-adv-x="612" 
d="M412 717h52q-6 -44 -32 -79q-23 -32 -69 -32q-31 0 -75 20q-41 19 -66 19q-32 0 -49 -42h-52q23 110 106 110q28 0 73.5 -20t65.5 -20q33 0 46 44z" />
    <glyph glyph-name="hungarumlaut" unicode="&#x2dd;" horiz-adv-x="402" 
d="M111 732h105l-120 -143h-66zM267 732h105l-120 -143h-66z" />
    <glyph glyph-name="uni0326" unicode="&#x326;" horiz-adv-x="0" 
d="M-141 -50h111v-77q0 -41 -26.5 -62t-72.5 -21v35q19 5 28.5 12.5t10.5 11.5t1 13h-52v88z" />
    <glyph glyph-name="endash" unicode="&#x2013;" horiz-adv-x="588" 
d="M44 318h500v-80h-500v80z" />
    <glyph glyph-name="emdash" unicode="&#x2014;" horiz-adv-x="812" 
d="M36 318h740v-80h-740v80z" />
    <glyph glyph-name="quoteleft" unicode="&#x2018;" horiz-adv-x="217" 
d="M137 480h-95l65 234h80z" />
    <glyph glyph-name="quoteright" unicode="&#x2019;" horiz-adv-x="217" 
d="M92 714h95l-65 -234h-80z" />
    <glyph glyph-name="quotesinglbase" unicode="&#x201a;" horiz-adv-x="217" 
d="M92 121h95l-65 -234h-80z" />
    <glyph glyph-name="quotedblleft" unicode="&#x201c;" horiz-adv-x="397" 
d="M137 480h-95l65 234h80zM317 480h-95l65 234h80z" />
    <glyph glyph-name="quotedblright" unicode="&#x201d;" horiz-adv-x="397" 
d="M92 714h95l-65 -234h-80zM272 714h95l-65 -234h-80z" />
    <glyph glyph-name="quotedblbase" unicode="&#x201e;" horiz-adv-x="397" 
d="M92 121h95l-65 -234h-80zM272 121h95l-65 -234h-80z" />
    <glyph glyph-name="dagger" unicode="&#x2020;" horiz-adv-x="568" 
d="M520 517v-75h-198v-597h-80v597h-194v75h194v197h80v-197h198z" />
    <glyph glyph-name="daggerdbl" unicode="&#x2021;" horiz-adv-x="568" 
d="M520 442h-198v-325h198v-75h-198v-197h-80v197h-194v75h194v325h-194v75h194v197h80v-197h198v-75z" />
    <glyph glyph-name="bullet" unicode="&#x2022;" horiz-adv-x="501" 
d="M255 455q77 0 130.5 -53t53.5 -130t-53.5 -131.5t-130.5 -54.5t-131 54.5t-54 131.5t54 130t131 53z" />
    <glyph glyph-name="ellipsis" unicode="&#x2026;" horiz-adv-x="680" 
d="M66 120h108v-120h-108v120zM286 120h108v-120h-108v120zM506 120h108v-120h-108v120z" />
    <glyph glyph-name="perthousand" unicode="&#x2030;" horiz-adv-x="1183" 
d="M590 715l-275 -715h-72l275 715h72zM194 714q70 0 110 -53.5t40 -128.5t-40 -130.5t-110 -55.5t-110 55.5t-40 130.5t40 128.5t110 53.5zM194 410q34 0 54.5 35t20.5 87t-20.5 85t-54.5 33t-54 -33t-20 -85t20 -87t54 -35zM649 358q69 0 109.5 -54t40.5 -128t-40.5 -130
t-109.5 -56q-70 0 -110.5 55.5t-40.5 130.5q0 74 40.5 128t110.5 54zM989 358q69 0 109.5 -54t40.5 -128t-40.5 -130t-109.5 -56q-70 0 -110 55.5t-40 130.5q0 74 40 128t110 54zM649 54q34 0 53.5 35.5t19.5 87.5q0 51 -19.5 84t-53.5 33t-54.5 -33t-20.5 -84
q0 -52 20.5 -87.5t54.5 -35.5zM989 54q34 0 54 35.5t20 87.5q0 51 -20 84t-54 33t-54.5 -33t-20.5 -84q0 -52 20.5 -87.5t54.5 -35.5z" />
    <glyph glyph-name="guilsinglleft" unicode="&#x2039;" horiz-adv-x="239" 
d="M10 266l127 214h80l-112 -214l112 -214h-80z" />
    <glyph glyph-name="guilsinglright" unicode="&#x203a;" horiz-adv-x="239" 
d="M229 266l-127 -214h-80l112 214l-112 214h80z" />
    <glyph glyph-name="fraction" unicode="&#x2044;" horiz-adv-x="227" 
d="M287 715l-275 -715h-72l275 715h72z" />
    <glyph glyph-name="Euro" unicode="&#x20ac;" horiz-adv-x="716" 
d="M232 255q28 -86 96 -139.5t167 -53.5q111 0 181 54v-86q-78 -44 -181 -44q-140 0 -233 74.5t-124 194.5h-105l23 72h70q-1 11 -1 33q0 17 1 25h-98l28 72h80q29 123 123 200t236 77q110 0 191 -50l-27 -70q-66 44 -164 44q-101 0 -170 -56t-95 -145h370l-26 -72h-357
q-1 -8 -1 -25q0 -11 2 -33h336l-26 -72h-296z" />
    <glyph glyph-name="trademark" unicode="&#x2122;" horiz-adv-x="454" 
d="M190 681h-63v-166h-40v166h-63v33h166v-33zM430 714v-199h-39v151h-1l-47 -151h-39l-47 151h-1v-151h-38v199h58l48 -151l47 151h59z" />
    <glyph glyph-name="arrowleft" unicode="&#x2190;" horiz-adv-x="848" 
d="M44 342l341 339l56 -58l-244 -243l591 1v-79h-592l244 -243l-56 -58z" />
    <glyph glyph-name="arrowup" unicode="&#x2191;" horiz-adv-x="768" 
d="M44 393l339 341l341 -340l-58 -56l-243 244v-582h-79l1 581l-243 -244z" />
    <glyph glyph-name="arrowright" unicode="&#x2192;" horiz-adv-x="848" 
d="M60 302v79l591 -1l-244 243l56 58l341 -339l-340 -341l-56 58l244 243h-592z" />
    <glyph glyph-name="arrowdown" unicode="&#x2193;" horiz-adv-x="768" 
d="M44 321l58 56l243 -244l-1 581h79v-582l243 244l58 -56l-341 -340z" />
    <glyph glyph-name="uni2196" unicode="&#x2196;" horiz-adv-x="649" 
d="M61 608h460v-80h-325l409 -410l-56 -56l-409 410v-326h-80z" />
    <glyph glyph-name="uni2197" unicode="&#x2197;" horiz-adv-x="649" 
d="M588 608l1 -462h-80v326l-409 -410l-56 56l409 410h-325v80h460z" />
    <glyph glyph-name="uni2198" unicode="&#x2198;" horiz-adv-x="649" 
d="M588 82h-460v80h325l-409 410l56 56l409 -410v326h80z" />
    <glyph glyph-name="uni2199" unicode="&#x2199;" horiz-adv-x="649" 
d="M61 82l-1 462h80v-326l409 410l56 -56l-409 -410h325v-80h-460z" />
    <glyph glyph-name="minus" unicode="&#x2212;" horiz-adv-x="648" 
d="M72 307h504v-80h-504v80z" />
    <glyph glyph-name="uni2219" unicode="&#x2219;" horiz-adv-x="290" 
d="M145 375q26 0 45 -19t19 -45q0 -24 -19.5 -44t-43.5 -20q-26 0 -45.5 19t-19.5 45t19 45t45 19z" />
    <glyph glyph-name="uniE0D6" unicode="&#xe0d6;" horiz-adv-x="242" 
d="M176 517v-585q0 -59 -30 -94t-95 -35h-61v76h38q34 0 47 10.5t13 44.5v583h88z" />
    <glyph glyph-name="grave.cap" horiz-adv-x="255" 
d="M123 883l126 -113h-100l-160 113h134z" />
    <glyph glyph-name="acute.cap" horiz-adv-x="255" 
d="M124 883h134l-160 -113h-100z" />
    <glyph glyph-name="circumflex.cap" horiz-adv-x="406" 
d="M18 752l113 127h100l113 -127h-100l-63 78l-63 -78h-100z" />
    <glyph glyph-name="caron.cap" horiz-adv-x="400" 
d="M264 883h92l-124 -135h-93l-123 135h89l81 -89z" />
    <glyph glyph-name="tilde.cap" horiz-adv-x="403" 
d="M372 889q-7 -49 -33 -80t-68 -31q-28 0 -75 19.5t-66 19.5q-33 0 -49 -42h-52q23 110 106 110q28 0 73.5 -20t65.5 -20q33 0 46 44h52z" />
    <glyph glyph-name="dieresis.cap" horiz-adv-x="338" 
d="M30 884h90v-104h-90v104zM218 884h90v-104h-90v104z" />
    <glyph glyph-name="macron.cap" horiz-adv-x="401" 
d="M30 857h341v-55h-341v55z" />
    <glyph glyph-name="breve.cap" horiz-adv-x="372" 
d="M337 894q-25 -122 -149 -122t-149 122h52q13 -35 34 -51t63 -16t63 16t34 51h52z" />
    <glyph glyph-name="ring.cap" horiz-adv-x="286" 
d="M143 983q44 0 76 -31.5t32 -76.5t-32 -76.5t-76 -31.5t-76 31.5t-32 76.5t32 76.5t76 31.5zM143 812q27 0 44 17.5t17 44.5t-17 44.5t-44 17.5t-44 -17.5t-17 -44.5t17 -44.5t44 -17.5z" />
    <glyph glyph-name="hungarumlaut.cap" horiz-adv-x="402" 
d="M119 883h111l-126 -113h-76zM275 883h111l-126 -113h-76z" />
    <glyph glyph-name="dotaccent.cap" horiz-adv-x="150" 
d="M30 890h90v-100h-90v100z" />
    <glyph glyph-name="uni0326.alt" horiz-adv-x="0" 
d="M-30 646h-111v77q0 41 26.5 62t72.5 21v-35q-19 -5 -28.5 -12.5t-10.5 -11.5t-1 -13h52v-88z" />
    <glyph glyph-name="bullet2" horiz-adv-x="415" 
d="M208 418q62 0 104.5 -42.5t42.5 -103.5q0 -62 -43 -105.5t-104 -43.5q-62 0 -105 43.5t-43 105.5q0 61 43 103.5t105 42.5z" />
    <glyph glyph-name="bullet3" horiz-adv-x="637" 
d="M319 539q108 0 183 -74t75 -182q0 -109 -75 -185t-183 -76t-183.5 76t-75.5 185q0 108 75.5 182t183.5 74z" />
    <glyph glyph-name="bullet4" horiz-adv-x="875" 
d="M442 714q152 0 256.5 -103.5t104.5 -254.5q0 -152 -105 -258.5t-256 -106.5t-256.5 106.5t-105.5 258.5q0 151 105.5 254.5t256.5 103.5z" />
    <glyph glyph-name="zero.subs" horiz-adv-x="438" 
d="M219 390q95 0 139 -71.5t44 -179.5q0 -50 -9.5 -93.5t-30 -81t-57.5 -59t-86 -21.5t-86 21.5t-57.5 59t-30 81t-9.5 93.5q0 108 44 179.5t139 71.5zM219 -50q52 0 78 55.5t26 133.5q0 77 -26 130.5t-78 53.5q-36 0 -60.5 -27.5t-34.5 -67.5t-10 -89q0 -77 26.5 -133
t78.5 -56z" />
    <glyph glyph-name="one.subs" horiz-adv-x="279" 
d="M219 386v-492h-79v353h-120v59q54 0 85.5 16.5t44.5 63.5h69z" />
    <glyph glyph-name="two.subs" horiz-adv-x="409" 
d="M379 -38v-68h-343q0 40 10 71.5t33 57.5t43.5 42t56.5 40q42 28 54.5 37t32 27.5t24.5 35t5 40.5q0 35 -22.5 57.5t-61.5 22.5q-43 0 -66.5 -26.5t-23.5 -70.5h-78q0 76 46.5 119.5t123.5 43.5q71 0 115.5 -39t44.5 -104q0 -40 -14.5 -71t-31.5 -48t-55 -47
q-17 -13 -52 -37t-55.5 -42.5t-30.5 -40.5h245z" />
    <glyph glyph-name="three.subs" horiz-adv-x="419" 
d="M55 252q3 63 44.5 100.5t111.5 37.5q69 0 110 -34t41 -92q0 -83 -78 -109q99 -21 99 -125q0 -62 -45.5 -104t-123.5 -42t-124.5 37.5t-53.5 106.5v7h80l1 -6q14 -79 96 -79q43 0 68 24t25 64t-28.5 61t-75.5 21q-20 0 -27 -1v67q21 0 34 1q74 5 74 68q0 33 -19.5 51
t-53.5 18q-66 0 -76 -63q0 -1 -0.5 -4t-0.5 -5h-78z" />
    <glyph glyph-name="four.subs" horiz-adv-x="397" 
d="M371 13h-54v-120h-79v120h-216v73l215 300h80v-306h54v-67zM238 80v194h-1l-138 -194h139z" />
    <glyph glyph-name="five.subs" horiz-adv-x="412" 
d="M221 223q74 0 120.5 -46t46.5 -123q0 -72 -50 -121.5t-127 -49.5q-74 0 -120 40t-55 101h79q5 -31 31.5 -52.5t64.5 -21.5q41 0 69.5 28.5t28.5 75.5q0 45 -29 74t-71 29q-58 0 -85 -49l-79 8l39 270l263 -1v-65h-199l-20 -139l-2 -4q34 46 95 46z" />
    <glyph glyph-name="six.subs" horiz-adv-x="425" 
d="M234 222q72 0 118.5 -47.5t46.5 -118.5q0 -75 -51 -124.5t-130 -49.5q-83 0 -134 59q-48 56 -48 185q0 71 17 128t60 96.5t107 39.5q141 0 164 -125l-78 -1q-8 19 -13.5 29t-24 20.5t-45.5 10.5q-51 0 -76.5 -42.5t-31.5 -129.5q11 27 43 48.5t76 21.5zM219 -52
q42 0 71.5 30.5t29.5 73.5q0 44 -29 74t-72 30q-44 0 -71 -29.5t-27 -74.5q0 -44 28 -74t70 -30z" />
    <glyph glyph-name="seven.subs" horiz-adv-x="352" 
d="M344 386v-63q-74 -73 -126 -194.5t-59 -235.5h-79q9 133 62.5 251t123.5 174h-250v68h328z" />
    <glyph glyph-name="eight.subs" horiz-adv-x="415" 
d="M282 152q42 -10 72.5 -44t30.5 -82q0 -66 -48.5 -105.5t-127.5 -39.5q-82 0 -131 39.5t-48 105.5q1 48 31.5 82t71.5 44q-37 9 -60.5 40.5t-23.5 72.5q0 55 43.5 90t115.5 35t115.5 -35t43.5 -90q0 -41 -24 -72.5t-61 -40.5zM208 325q-37 0 -59 -21t-22 -51
q0 -31 21.5 -52t59.5 -21t59.5 21t21.5 52q0 30 -22 51t-59 21zM208 -54q47 0 72.5 25t25.5 62t-25.5 61.5t-72.5 24.5t-73 -24.5t-26 -61.5t26 -62t73 -25z" />
    <glyph glyph-name="nine.subs" horiz-adv-x="425" 
d="M341 332q48 -55 48 -186q0 -114 -45 -189t-137 -75q-72 0 -116 35t-53 91h79q20 -60 88 -60q53 0 76.5 44.5t27.5 124.5q-9 -24 -39.5 -45.5t-74.5 -21.5q-74 0 -121.5 47.5t-47.5 119.5q0 75 51 124t129 49q83 0 135 -58zM206 116q44 0 72.5 31.5t28.5 73.5
q0 44 -29 73.5t-72 29.5t-72 -29.5t-29 -73.5q0 -45 28.5 -75t72.5 -30z" />
    <glyph glyph-name="zero.dnom" horiz-adv-x="438" 
d="M219 496q95 0 139 -71.5t44 -179.5q0 -50 -9.5 -93.5t-30 -81t-57.5 -59t-86 -21.5t-86 21.5t-57.5 59t-30 81t-9.5 93.5q0 108 44 179.5t139 71.5zM219 56q52 0 78 55.5t26 133.5q0 77 -26 130.5t-78 53.5q-36 0 -60.5 -27.5t-34.5 -67.5t-10 -89q0 -77 26.5 -133
t78.5 -56z" />
    <glyph glyph-name="one.dnom" horiz-adv-x="279" 
d="M219 492v-492h-79v353h-120v59q54 0 85.5 16.5t44.5 63.5h69z" />
    <glyph glyph-name="two.dnom" horiz-adv-x="409" 
d="M379 68v-68h-343q0 40 10 71.5t33 57.5t43.5 42t56.5 40q42 28 54.5 37t32 27.5t24.5 35t5 40.5q0 35 -22.5 57.5t-61.5 22.5q-43 0 -66.5 -26.5t-23.5 -70.5h-78q0 76 46.5 119.5t123.5 43.5q71 0 115.5 -39t44.5 -104q0 -40 -14.5 -71t-31.5 -48t-55 -47
q-17 -13 -52 -37t-55.5 -42.5t-30.5 -40.5h245z" />
    <glyph glyph-name="three.dnom" horiz-adv-x="419" 
d="M55 358q3 63 44.5 100.5t111.5 37.5q69 0 110 -34t41 -92q0 -83 -78 -109q99 -21 99 -125q0 -62 -45.5 -104t-123.5 -42t-124.5 37.5t-53.5 106.5v7h80l1 -6q14 -79 96 -79q43 0 68 24t25 64t-28.5 61t-75.5 21q-20 0 -27 -1v67q21 0 34 1q74 5 74 68q0 33 -19.5 51
t-53.5 18q-66 0 -76 -63q0 -1 -0.5 -4t-0.5 -5h-78z" />
    <glyph glyph-name="four.dnom" horiz-adv-x="397" 
d="M371 119h-54v-120h-79v120h-216v73l215 300h80v-306h54v-67zM238 186v194h-1l-138 -194h139z" />
    <glyph glyph-name="five.dnom" horiz-adv-x="412" 
d="M221 329q74 0 120.5 -46t46.5 -123q0 -72 -50 -121.5t-127 -49.5q-74 0 -120 40t-55 101h79q5 -31 31.5 -52.5t64.5 -21.5q41 0 69.5 28.5t28.5 75.5q0 45 -29 74t-71 29q-58 0 -85 -49l-79 8l39 270l263 -1v-65h-199l-20 -139l-2 -4q34 46 95 46z" />
    <glyph glyph-name="six.dnom" horiz-adv-x="425" 
d="M234 328q72 0 118.5 -47.5t46.5 -118.5q0 -75 -51 -124.5t-130 -49.5q-83 0 -134 59q-48 56 -48 185q0 71 17 128t60 96.5t107 39.5q141 0 164 -125l-78 -1q-8 19 -13.5 29t-24 20.5t-45.5 10.5q-51 0 -76.5 -42.5t-31.5 -129.5q11 27 43 48.5t76 21.5zM219 54
q42 0 71.5 30.5t29.5 73.5q0 44 -29 74t-72 30q-44 0 -71 -29.5t-27 -74.5q0 -44 28 -74t70 -30z" />
    <glyph glyph-name="seven.dnom" horiz-adv-x="352" 
d="M344 492v-63q-74 -73 -126 -194.5t-59 -235.5h-79q9 133 62.5 251t123.5 174h-250v68h328z" />
    <glyph glyph-name="eight.dnom" horiz-adv-x="415" 
d="M282 258q42 -10 72.5 -44t30.5 -82q0 -66 -48.5 -105.5t-127.5 -39.5q-82 0 -131 39.5t-48 105.5q1 48 31.5 82t71.5 44q-37 9 -60.5 40.5t-23.5 72.5q0 55 43.5 90t115.5 35t115.5 -35t43.5 -90q0 -41 -24 -72.5t-61 -40.5zM208 431q-37 0 -59 -21t-22 -51
q0 -31 21.5 -52t59.5 -21t59.5 21t21.5 52q0 30 -22 51t-59 21zM208 52q47 0 72.5 25t25.5 62t-25.5 61.5t-72.5 24.5t-73 -24.5t-26 -61.5t26 -62t73 -25z" />
    <glyph glyph-name="nine.dnom" horiz-adv-x="425" 
d="M341 438q48 -55 48 -186q0 -114 -45 -189t-137 -75q-72 0 -116 35t-53 91h79q20 -60 88 -60q53 0 76.5 44.5t27.5 124.5q-9 -24 -39.5 -45.5t-74.5 -21.5q-74 0 -121.5 47.5t-47.5 119.5q0 75 51 124t129 49q83 0 135 -58zM206 222q44 0 72.5 31.5t28.5 73.5
q0 44 -29 73.5t-72 29.5t-72 -29.5t-29 -73.5q0 -45 28.5 -75t72.5 -30z" />
    <glyph glyph-name="zero.numr" horiz-adv-x="438" 
d="M219 718q95 0 139 -71.5t44 -179.5q0 -50 -9.5 -93.5t-30 -81t-57.5 -59t-86 -21.5t-86 21.5t-57.5 59t-30 81t-9.5 93.5q0 108 44 179.5t139 71.5zM219 278q52 0 78 55.5t26 133.5q0 77 -26 130.5t-78 53.5q-36 0 -60.5 -27.5t-34.5 -67.5t-10 -89q0 -77 26.5 -133
t78.5 -56z" />
    <glyph glyph-name="one.numr" horiz-adv-x="279" 
d="M219 715v-493h-79v353h-120v59q54 0 85.5 16.5t44.5 63.5z" />
    <glyph glyph-name="two.numr" horiz-adv-x="409" 
d="M379 289v-68h-343q0 40 10 71.5t33 57.5t43.5 42t56.5 40q42 28 54.5 37t32 27.5t24.5 35t5 40.5q0 35 -22.5 57.5t-61.5 22.5q-43 0 -66.5 -26.5t-23.5 -70.5h-78q0 76 46.5 119.5t123.5 43.5q71 0 115.5 -39t44.5 -104q0 -40 -14.5 -71t-31.5 -48t-55 -47
q-17 -13 -52 -37t-55.5 -42.5t-30.5 -40.5h245z" />
    <glyph glyph-name="three.numr" horiz-adv-x="419" 
d="M55 580q3 63 44.5 100.5t111.5 37.5q69 0 110 -34t41 -92q0 -83 -78 -109q99 -21 99 -125q0 -62 -45.5 -104t-123.5 -42t-124.5 37.5t-53.5 106.5v7h80l1 -6q14 -79 96 -79q43 0 68 24t25 64t-28.5 61t-75.5 21q-20 0 -27 -1v67q21 0 34 1q74 5 74 68q0 33 -19.5 51
t-53.5 18q-66 0 -76 -63q0 -1 -0.5 -4t-0.5 -5h-78z" />
    <glyph glyph-name="four.numr" horiz-adv-x="397" 
d="M371 341h-54v-120h-79v120h-216v73l215 300h80v-306h54v-67zM238 408v194h-1l-138 -194h139z" />
    <glyph glyph-name="five.numr" horiz-adv-x="412" 
d="M221 551q74 0 120.5 -46t46.5 -123q0 -72 -50 -121.5t-127 -49.5q-74 0 -120 40t-55 101h79q5 -31 31.5 -52.5t64.5 -21.5q41 0 69.5 28.5t28.5 75.5q0 45 -29 74t-71 29q-58 0 -85 -49l-79 8l39 270l263 -1v-65h-199l-20 -139l-2 -4q34 46 95 46z" />
    <glyph glyph-name="six.numr" horiz-adv-x="425" 
d="M234 550q72 0 118.5 -47.5t46.5 -118.5q0 -75 -51 -124.5t-130 -49.5q-83 0 -134 59q-48 56 -48 185q0 71 17 128t60 96.5t107 39.5q141 0 164 -125l-78 -1q-8 19 -13.5 29t-24 20.5t-45.5 10.5q-51 0 -76.5 -42.5t-31.5 -129.5q11 27 43 48.5t76 21.5zM219 276
q42 0 71.5 30.5t29.5 73.5q0 44 -29 74t-72 30q-44 0 -71 -29.5t-27 -74.5q0 -44 28 -74t70 -30z" />
    <glyph glyph-name="seven.numr" horiz-adv-x="352" 
d="M344 714v-63q-74 -73 -126 -194.5t-59 -235.5h-79q9 133 62.5 251t123.5 174h-250v68h328z" />
    <glyph glyph-name="eight.numr" horiz-adv-x="415" 
d="M282 480q42 -10 72.5 -44t30.5 -82q0 -66 -48.5 -105.5t-127.5 -39.5q-82 0 -131 39.5t-48 105.5q1 48 31.5 82t71.5 44q-37 9 -60.5 40.5t-23.5 72.5q0 55 43.5 90t115.5 35t115.5 -35t43.5 -90q0 -41 -24 -72.5t-61 -40.5zM208 653q-37 0 -59 -21t-22 -51
q0 -31 21.5 -52t59.5 -21t59.5 21t21.5 52q0 30 -22 51t-59 21zM208 274q47 0 72.5 25t25.5 62t-25.5 61.5t-72.5 24.5t-73 -24.5t-26 -61.5t26 -62t73 -25z" />
    <glyph glyph-name="nine.numr" horiz-adv-x="425" 
d="M341 660q48 -55 48 -186q0 -114 -45 -189t-137 -75q-72 0 -116 35t-53 91h79q20 -60 88 -60q53 0 76.5 44.5t27.5 124.5q-9 -24 -39.5 -45.5t-74.5 -21.5q-74 0 -121.5 47.5t-47.5 119.5q0 75 51 124t129 49q83 0 135 -58zM206 444q44 0 72.5 31.5t28.5 73.5
q0 44 -29 73.5t-72 29.5t-72 -29.5t-29 -73.5q0 -45 28.5 -75t72.5 -30z" />
    <glyph glyph-name="zero.sups" horiz-adv-x="438" 
d="M219 824q95 0 139 -71.5t44 -179.5q0 -50 -9.5 -93.5t-30 -81t-57.5 -59t-86 -21.5t-86 21.5t-57.5 59t-30 81t-9.5 93.5q0 108 44 179.5t139 71.5zM219 384q52 0 78 55.5t26 133.5q0 77 -26 130.5t-78 53.5q-36 0 -60.5 -27.5t-34.5 -67.5t-10 -89q0 -77 26.5 -133
t78.5 -56z" />
    <glyph glyph-name="one.sups" horiz-adv-x="279" 
d="M219 820v-492h-79v353h-120v59q54 0 85.5 16.5t44.5 63.5h69z" />
    <glyph glyph-name="two.sups" horiz-adv-x="409" 
d="M379 395v-68h-343q0 40 10 71.5t33 57.5t43.5 42t56.5 40q42 28 54.5 37t32 27.5t24.5 35t5 40.5q0 35 -22.5 57.5t-61.5 22.5q-43 0 -66.5 -26.5t-23.5 -70.5h-78q0 76 46.5 119.5t123.5 43.5q71 0 115.5 -39t44.5 -104q0 -40 -14.5 -71t-31.5 -48t-55 -47
q-17 -13 -52 -37t-55.5 -42.5t-30.5 -40.5h245z" />
    <glyph glyph-name="three.sups" horiz-adv-x="419" 
d="M55 686q3 63 44.5 100.5t111.5 37.5q69 0 110 -34t41 -92q0 -83 -78 -109q99 -21 99 -125q0 -62 -45.5 -104t-123.5 -42t-124.5 37.5t-53.5 106.5v7h80l1 -6q14 -79 96 -79q43 0 68 24t25 64t-28.5 61t-75.5 21q-20 0 -27 -1v67q21 0 34 1q74 5 74 68q0 33 -19.5 51
t-53.5 18q-66 0 -76 -63q0 -1 -0.5 -4t-0.5 -5h-78z" />
    <glyph glyph-name="four.sups" horiz-adv-x="397" 
d="M371 447h-54v-120h-79v120h-216v73l215 300h80v-306h54v-67zM238 514v194h-1l-138 -194h139z" />
    <glyph glyph-name="five.sups" horiz-adv-x="412" 
d="M221 657q74 0 120.5 -46t46.5 -123q0 -72 -50 -121.5t-127 -49.5q-74 0 -120 40t-55 101h79q5 -31 31.5 -52.5t64.5 -21.5q41 0 69.5 28.5t28.5 75.5q0 45 -29 74t-71 29q-58 0 -85 -49l-79 8l39 270l263 -1v-65h-199l-20 -139l-2 -4q34 46 95 46z" />
    <glyph glyph-name="six.sups" horiz-adv-x="425" 
d="M234 656q72 0 118.5 -47.5t46.5 -118.5q0 -75 -51 -124.5t-130 -49.5q-83 0 -134 59q-48 56 -48 185q0 71 17 128t60 96.5t107 39.5q141 0 164 -125l-78 -1q-8 19 -13.5 29t-24 20.5t-45.5 10.5q-51 0 -76.5 -42.5t-31.5 -129.5q11 27 43 48.5t76 21.5zM219 382
q42 0 71.5 30.5t29.5 73.5q0 44 -29 74t-72 30q-44 0 -71 -29.5t-27 -74.5q0 -44 28 -74t70 -30z" />
    <glyph glyph-name="seven.sups" horiz-adv-x="352" 
d="M344 820v-63q-74 -73 -126 -194.5t-59 -235.5h-79q9 133 62.5 251t123.5 174h-250v68h328z" />
    <glyph glyph-name="eight.sups" horiz-adv-x="415" 
d="M282 586q42 -10 72.5 -44t30.5 -82q0 -66 -48.5 -105.5t-127.5 -39.5q-82 0 -131 39.5t-48 105.5q1 48 31.5 82t71.5 44q-37 9 -60.5 40.5t-23.5 72.5q0 55 43.5 90t115.5 35t115.5 -35t43.5 -90q0 -41 -24 -72.5t-61 -40.5zM208 759q-37 0 -59 -21t-22 -51
q0 -31 21.5 -52t59.5 -21t59.5 21t21.5 52q0 30 -22 51t-59 21zM208 380q47 0 72.5 25t25.5 62t-25.5 61.5t-72.5 24.5t-73 -24.5t-26 -61.5t26 -62t73 -25z" />
    <glyph glyph-name="nine.sups" horiz-adv-x="425" 
d="M341 766q48 -55 48 -186q0 -114 -45 -189t-137 -75q-72 0 -116 35t-53 91h79q20 -60 88 -60q53 0 76.5 44.5t27.5 124.5q-9 -24 -39.5 -45.5t-74.5 -21.5q-74 0 -121.5 47.5t-47.5 119.5q0 75 51 124t129 49q83 0 135 -58zM206 550q44 0 72.5 31.5t28.5 73.5
q0 44 -29 73.5t-72 29.5t-72 -29.5t-29 -73.5q0 -45 28.5 -75t72.5 -30z" />
    <glyph glyph-name="bullet.5" horiz-adv-x="637" 
d="M319 9q108 0 183 76t75 185q0 108 -75 182t-183 74t-183.5 -74t-75.5 -182q0 -109 75.5 -185t183.5 -76zM319 469q84 0 142.5 -58t58.5 -141q0 -85 -58.5 -144.5t-142.5 -59.5t-143 59.5t-59 144.5q0 83 59 141t143 58z" />
    <glyph glyph-name="bullet.6" horiz-adv-x="493" 
d="M247 76q77 0 131.5 55t54.5 133t-54 131.5t-132 53.5t-132.5 -53.5t-54.5 -131.5t54.5 -133t132.5 -55zM247 398q56 0 95.5 -39.5t39.5 -94.5q0 -57 -39.5 -97t-95.5 -40q-57 0 -96.5 40t-39.5 97q0 56 39.5 95t96.5 39z" />
    <glyph glyph-name="bullet.5.case" horiz-adv-x="637" 
d="M319 72q108 0 183 76t75 185q0 108 -75 182t-183 74t-183.5 -74t-75.5 -182q0 -109 75.5 -185t183.5 -76zM319 532q84 0 142.5 -58t58.5 -141q0 -85 -58.5 -144.5t-142.5 -59.5t-143 59.5t-59 144.5q0 83 59 141t143 58z" />
    <glyph glyph-name="bullet.6.case" horiz-adv-x="493" 
d="M247 144q77 0 131.5 55t54.5 133t-54 131.5t-132 53.5t-132.5 -53.5t-54.5 -131.5t54.5 -133t132.5 -55zM247 466q56 0 95.5 -39.5t39.5 -94.5q0 -57 -39.5 -97t-95.5 -40q-57 0 -96.5 40t-39.5 97q0 56 39.5 95t96.5 39z" />
    <glyph glyph-name="slash.case" horiz-adv-x="351" 
d="M246 744h93l-222 -774h-93z" />
    <glyph glyph-name="slash.zero" horiz-adv-x="588" 
d="M395 642l69 -33l-270 -565l-69 32z" />
    <glyph glyph-name="parenleft.case" horiz-adv-x="293" 
d="M182 -28q-77 112 -107.5 196.5t-30.5 191.5q0 99 31.5 190.5t106.5 190.5h87q-127 -186 -127 -381q0 -96 28 -176.5t99 -211.5h-87z" />
    <glyph glyph-name="parenright.case" horiz-adv-x="293" 
d="M111 -28h-87q71 131 99 211.5t28 176.5q0 195 -127 381h87q75 -99 106.5 -190.5t31.5 -190.5q0 -107 -30.5 -191.5t-107.5 -196.5z" />
    <glyph glyph-name="braceleft.case" horiz-adv-x="345" 
d="M319 687h-50q-48 0 -48 -82v-113q0 -61 -30 -94.5t-57 -39.5v-3q28 -4 57.5 -36t29.5 -98v-113q0 -82 48 -82h50v-65h-74q-41 0 -74.5 36t-33.5 96v112q0 53 -24.5 85t-58.5 32v68q33 0 58 33.5t25 84.5v112q0 60 33.5 95.5t74.5 35.5h74v-64z" />
    <glyph glyph-name="braceright.case" horiz-adv-x="345" 
d="M26 687v64h74q41 0 74.5 -35.5t33.5 -95.5v-112q0 -51 25 -84.5t58 -33.5v-68q-34 0 -58.5 -32t-24.5 -85v-112q0 -60 -33.5 -96t-74.5 -36h-74v65h50q48 0 48 82v113q0 66 29.5 98t57.5 36v3q-27 6 -57 39.5t-30 94.5v113q0 82 -48 82h-50z" />
    <glyph glyph-name="bracketleft.case" horiz-adv-x="287" 
d="M265 60v-72h-187v743h187v-72h-103v-599h103z" />
    <glyph glyph-name="bracketright.case" horiz-adv-x="287" 
d="M22 60h103v599h-103v72h187v-743h-187v72z" />
    <glyph glyph-name="parenleft.ss05" horiz-adv-x="269" 
d="M60 266q0 237 171 465h26q-171 -223 -171 -465q0 -243 171 -466h-26q-171 228 -171 466z" />
    <glyph glyph-name="parenright.ss05" horiz-adv-x="269" 
d="M209 266q0 -238 -171 -466h-26q171 223 171 466q0 242 -171 465h26q171 -228 171 -465z" />
    <glyph glyph-name="parenleft.case.ss05" horiz-adv-x="224" 
d="M40 360q0 190 136 371h26q-136 -179 -136 -371t136 -371h-26q-136 181 -136 371z" />
    <glyph glyph-name="parenright.case.ss05" horiz-adv-x="224" 
d="M184 360q0 -190 -136 -371h-26q136 179 136 371t-136 371h26q136 -181 136 -371z" />
    <glyph glyph-name="bracketleft.case.ss05" horiz-adv-x="287" 
d="M265 20v-22h-157v723h157v-22h-133v-679h133z" />
    <glyph glyph-name="bracketright.case.ss05" horiz-adv-x="289" 
d="M22 20h133v679h-133v22h157v-723h-157v22z" />
    <glyph glyph-name="hyphen.case" horiz-adv-x="455" 
d="M62 374h331v-80h-331v80z" />
    <glyph glyph-name="endash.case" horiz-adv-x="588" 
d="M44 384h500v-80h-500v80z" />
    <glyph glyph-name="emdash.case" horiz-adv-x="812" 
d="M36 370h740v-80h-740v80z" />
    <glyph glyph-name="guillemotleft.case" horiz-adv-x="414" 
d="M10 346l127 214h80l-112 -214l112 -214h-80zM185 346l127 214h80l-112 -214l112 -214h-80z" />
    <glyph glyph-name="guillemotright.case" horiz-adv-x="414" 
d="M229 346l-127 -214h-80l112 214l-112 214h80zM404 346l-127 -214h-80l112 214l-112 214h80z" />
    <glyph glyph-name="guilsinglleft.case" horiz-adv-x="239" 
d="M10 346l127 214h80l-112 -214l112 -214h-80z" />
    <glyph glyph-name="guilsinglright.case" horiz-adv-x="239" 
d="M229 346l-127 -214h-80l112 214l-112 214h80z" />
    <glyph glyph-name="plus.case" horiz-adv-x="604" 
d="M342 389h212v-76h-212v-215h-80v215h-212v76h212v215h80v-215z" />
    <glyph glyph-name="minus.case" horiz-adv-x="648" 
d="M72 387h504v-68h-504v68z" />
    <glyph glyph-name="multiply.case" horiz-adv-x="609" 
d="M72 176l179 178l-178 177l54 54l178 -177l177 178l54 -54l-177 -178l178 -179l-54 -54l-178 180l-179 -179z" />
    <glyph glyph-name="divide.case" horiz-adv-x="648" 
d="M260 559q0 26 19 45t45 19t45 -19t19 -45q0 -24 -19 -44t-44 -20q-26 0 -45.5 19t-19.5 45zM72 387h504v-68h-504v68zM260 147q0 26 19 45t45 19t45 -19t19 -45q0 -24 -19 -44t-44 -20q-26 0 -45.5 19t-19.5 45z" />
    <glyph glyph-name="equal.case" horiz-adv-x="628" 
d="M556 395h-484v74h484v-74zM72 265h484v-74h-484v74z" />
    <glyph glyph-name="plusminus.case" horiz-adv-x="648" 
d="M72 469h218v166h68v-166h218v-68h-218v-167h-68v167h-218v68zM72 198h504v-68h-504v68z" />
    <glyph glyph-name="plus.case.ss05" horiz-adv-x="636" 
d="M334 361h236v-28h-236v-239h-32v239h-236v28h236v239h32v-239z" />
    <glyph glyph-name="plus.ss05" horiz-adv-x="636" 
d="M334 287h236v-28h-236v-239h-32v239h-236v28h236v239h32v-239z" />
    <glyph glyph-name="copyright.sups" horiz-adv-x="277" 
d="M139 480q-53 0 -90 36.5t-37 90.5q0 52 37 88.5t90 36.5t89.5 -36.5t36.5 -88.5q0 -54 -36.5 -90.5t-89.5 -36.5zM139 508q40 0 67 28t28 71q1 41 -27 69t-68 28t-68 -28t-28 -69q0 -42 28 -70.5t68 -28.5zM200 584q-4 -18 -21 -31t-39 -13q-28 0 -46.5 19t-18.5 48
q0 28 18.5 46.5t46.5 18.5q47 0 60 -42h-28q-8 18 -32 18q-36 0 -36 -41t36 -41q22 0 31 18h29z" />
    <glyph glyph-name="registered.sups" horiz-adv-x="277" 
d="M139 480q53 0 89.5 36.5t36.5 90.5q0 52 -36.5 88.5t-89.5 36.5t-90 -36.5t-37 -88.5q0 -54 37 -90.5t90 -36.5zM139 508q-40 0 -68 28.5t-28 70.5q0 41 28 69t68 28t68 -28t28 -69q0 -42 -28 -70.5t-68 -28.5zM96 544v126h50q44 0 44 -37q0 -24 -24 -32q11 -5 18 -27
t12 -28v-2h-26l-11 30q-6 17 -25 17h-14v-47h-24zM120 614h22q23 0 23 19q0 17 -23 17h-22v-36z" />
    <glyph glyph-name="cedilla.cap" horiz-adv-x="260" 
d="M40 -139q29 -19 67 -19q56 0 56 31q0 29 -47 29q-17 0 -41 -8l-27 39l60 67h53l-42 -53l2 -2q10 7 33 7q35 0 59.5 -19t24.5 -54q0 -46 -37.5 -67.5t-86.5 -21.5q-50 0 -93 20z" />
    </font>
</defs>
</svg>
